Bahiana.ufo
<glyph name="exclam" format="1">
  <advance width="206"/>
  <unicode hex="0021"/>
  <outline>
    <contour>
      <point x="50" y="0" type="line"/>
      <point x="142" y="0" type="line"/>
      <point x="146" y="96" type="line"/>
      <point x="50" y="92" type="line"/>
    </contour>
    <contour>
      <point x="73" y="190" type="line"/>
      <point x="116" y="184" type="line"/>
      <point x="154" y="710" type="line"/>
      <point x="50" y="710" type="line"/>
    </contour>
  </outline>
</glyph>
<glyph name="quotedbl" format="1">
  <advance width="309"/>
  <unicode hex="0022"/>
  <outline>
    <contour>
      <point x="69" y="492" type="line"/>
      <point x="120" y="502" type="line"/>
      <point x="127" y="710" type="line"/>
      <point x="50" y="710" type="line"/>
    </contour>
    <contour>
      <point x="201" y="492" type="line"/>
      <point x="252" y="502" type="line"/>
      <point x="259" y="710" type="line"/>
      <point x="182" y="710" type="line"/>
    </contour>
  </outline>
</glyph>
<glyph name="dollar" format="1">
  <advance width="339"/>
  <unicode hex="0024"/>
  <outline>
    <contour>
      <point x="129" y="-99" type="line"/>
      <point x="177" y="-99" type="line"/>
      <point x="177" y="0" type="line"/>
      <point x="211" y="0" type="line" smooth="yes"/>
      <point x="240" y="0"/>
      <point x="275" y="32"/>
      <point x="275" y="60" type="curve" smooth="yes"/>
      <point x="275" y="377" type="line"/>
      <point x="133" y="410" type="line"/>
      <point x="124" y="651" type="line"/>
      <point x="275" y="656" type="line"/>
      <point x="275" y="710" type="line"/>
      <point x="207" y="710" type="line"/>
      <point x="207" y="809" type="line"/>
      <point x="153" y="811" type="line"/>
      <point x="158" y="710" type="line"/>
      <point x="108" y="710" type="line" smooth="yes"/>
      <point x="87" y="710"/>
      <point x="68" y="684"/>
      <point x="68" y="663" type="curve" smooth="yes"/>
      <point x="68" y="355" type="line"/>
      <point x="207" y="325" type="line"/>
      <point x="219" y="60" type="line"/>
      <point x="65" y="60" type="line"/>
      <point x="68" y="0" type="line"/>
      <point x="124" y="0" type="line"/>
    </contour>
  </outline>
</glyph>
<glyph name="percent" format="1">
  <advance width="449"/>
  <unicode hex="0025"/>
  <outline>
    <contour>
      <point x="419" y="679" type="line"/>
      <point x="385" y="707" type="line"/>
      <point x="24" y="33" type="line"/>
      <point x="63" y="-2" type="line"/>
    </contour>
    <contour>
      <point x="27" y="710" type="line"/>
      <point x="27" y="395" type="line"/>
      <point x="141" y="395" type="line"/>
      <point x="166" y="421" type="line"/>
      <point x="166" y="710" type="line"/>
    </contour>
    <contour>
      <point x="86" y="440" type="line" smooth="yes"/>
      <point x="82" y="440"/>
      <point x="80" y="441"/>
      <point x="80" y="444" type="curve" smooth="yes"/>
      <point x="70" y="670" type="line" smooth="yes"/>
      <point x="70" y="672"/>
      <point x="73" y="673"/>
      <point x="78" y="673" type="curve"/>
      <point x="108" y="658" type="line" smooth="yes"/>
      <point x="112" y="656"/>
      <point x="114" y="654"/>
      <point x="114" y="652" type="curve" smooth="yes"/>
      <point x="124" y="446" type="line" smooth="yes"/>
      <point x="124" y="442"/>
      <point x="122" y="440"/>
      <point x="117" y="440" type="curve" smooth="yes"/>
    </contour>
    <contour>
      <point x="416" y="0" type="line"/>
      <point x="416" y="289" type="line"/>
      <point x="391" y="315" type="line"/>
      <point x="277" y="315" type="line"/>
      <point x="277" y="0" type="line"/>
    </contour>
    <contour>
      <point x="367" y="270" type="line" smooth="yes"/>
      <point x="372" y="270"/>
      <point x="374" y="268"/>
      <point x="374" y="264" type="curve" smooth="yes"/>
      <point x="364" y="58" type="line" smooth="yes"/>
      <point x="364" y="56"/>
      <point x="362" y="54"/>
      <point x="358" y="52" type="curve" smooth="yes"/>
      <point x="328" y="37" type="line"/>
      <point x="323" y="37"/>
      <point x="320" y="38"/>
      <point x="320" y="40" type="curve" smooth="yes"/>
      <point x="330" y="266" type="line" smooth="yes"/>
      <point x="330" y="269"/>
      <point x="332" y="270"/>
      <point x="336" y="270" type="curve" smooth="yes"/>
    </contour>
  </outline>
</glyph>
<glyph name="parenleft" format="1">
  <advance width="248"/>
  <unicode hex="0028"/>
  <outline>
    <contour>
      <point x="105" y="211" type="line"/>
      <point x="105" y="441" type="line"/>
      <point x="198" y="742" type="line"/>
      <point x="130" y="762" type="line"/>
      <point x="40" y="404" type="line"/>
      <point x="46" y="222" type="line"/>
      <point x="130" y="-76" type="line"/>
      <point x="195" y="-49" type="line"/>
    </contour>
  </outline>
</glyph>
<glyph name="slash" format="1">
  <advance width="246"/>
  <unicode hex="002F"/>
  <outline>
    <contour>
      <point x="216" y="710" type="line"/>
      <point x="165" y="720" type="line"/>
      <point x="30" y="0" type="line"/>
      <point x="88" y="-14" type="line"/>
    </contour>
  </outline>
</glyph>
<glyph name="zero" format="1">
  <advance width="339"/>
  <unicode hex="0030"/>
  <outline>
    <contour>
      <point x="272" y="710" type="line"/>
      <point x="90" y="710" type="line"/>
      <point x="50" y="691" type="line"/>
      <point x="50" y="26" type="line"/>
      <point x="81" y="0" type="line"/>
      <point x="239" y="0" type="line"/>
      <point x="289" y="41" type="line"/>
      <point x="290" y="666" type="line"/>
    </contour>
    <contour>
      <point x="131" y="69" type="line" smooth="yes"/>
      <point x="128" y="69"/>
      <point x="126" y="70"/>
      <point x="124" y="71" type="curve"/>
      <point x="227" y="608" type="line"/>
      <point x="227" y="81" type="line" smooth="yes"/>
      <point x="227" y="76"/>
      <point x="220" y="69"/>
      <point x="212" y="69" type="curve" smooth="yes"/>
    </contour>
    <contour>
      <point x="118" y="650" type="line" smooth="yes"/>
      <point x="118" y="654"/>
      <point x="123" y="656"/>
      <point x="134" y="656" type="curve" smooth="yes"/>
      <point x="215" y="656" type="line"/>
      <point x="216" y="655"/>
      <point x="217" y="655"/>
      <point x="218" y="655" type="curve"/>
      <point x="118" y="171" type="line"/>
    </contour>
  </outline>
</glyph>
<glyph name="two" format="1">
  <advance width="339"/>
  <unicode hex="0032"/>
  <outline>
    <contour>
      <point x="106" y="64" type="line"/>
      <point x="300" y="381" type="line"/>
      <point x="300" y="710" type="line"/>
      <point x="113" y="710" type="line"/>
      <point x="47" y="662" type="line"/>
      <point x="47" y="473" type="line"/>
      <point x="108" y="473" type="line"/>
      <point x="113" y="622" type="line"/>
      <point x="131" y="637" type="line"/>
      <point x="222" y="646" type="line"/>
      <point x="222" y="409" type="line"/>
      <point x="37" y="85" type="line"/>
      <point x="52" y="0" type="line"/>
      <point x="292" y="0" type="line"/>
      <point x="303" y="100" type="line"/>
      <point x="204" y="63" type="line"/>
    </contour>
  </outline>
</glyph>
<glyph name="three" format="1">
  <advance width="339"/>
  <unicode hex="0033"/>
  <outline>
    <contour>
      <point x="294" y="469" type="line"/>
      <point x="294" y="710" type="line"/>
      <point x="93" y="710" type="line"/>
      <point x="47" y="681" type="line"/>
      <point x="47" y="642" type="line"/>
      <point x="224" y="649" type="line"/>
      <point x="217" y="458" type="line"/>
      <point x="99" y="427" type="line"/>
      <point x="99" y="372" type="line"/>
      <point x="210" y="370" type="line"/>
      <point x="221" y="69" type="line" smooth="yes"/>
      <point x="221" y="62"/>
      <point x="218" y="59"/>
      <point x="211" y="59" type="curve" smooth="yes"/>
      <point x="208" y="59"/>
      <point x="207" y="59"/>
      <point x="206" y="60" type="curve"/>
      <point x="120" y="72" type="line"/>
      <point x="109" y="72"/>
      <point x="104" y="74"/>
      <point x="104" y="78" type="curve" smooth="yes"/>
      <point x="95" y="198" type="line"/>
      <point x="48" y="198" type="line"/>
      <point x="48" y="0" type="line"/>
      <point x="244" y="0" type="line"/>
      <point x="291" y="52" type="line"/>
      <point x="291" y="354" type="line"/>
      <point x="255" y="409" type="line"/>
      <point x="288" y="445" type="line"/>
    </contour>
  </outline>
</glyph>
<glyph name="four" format="1">
  <advance width="339"/>
  <unicode hex="0034"/>
  <outline>
    <contour>
      <point x="275" y="0" type="line"/>
      <point x="275" y="710" type="line"/>
      <point x="172" y="710" type="line"/>
      <point x="21" y="242" type="line"/>
      <point x="35" y="200" type="line"/>
      <point x="207" y="200" type="line"/>
      <point x="200" y="0" type="line"/>
    </contour>
    <contour>
      <point x="98" y="255" type="line"/>
      <point x="211" y="658" type="line"/>
      <point x="216" y="658" type="line"/>
      <point x="196" y="266" type="line"/>
    </contour>
  </outline>
</glyph>
<glyph name="seven" format="1">
  <advance width="339"/>
  <unicode hex="0037"/>
  <outline>
    <contour>
      <point x="181" y="-19" type="line"/>
      <point x="268" y="360" type="line"/>
      <point x="318" y="360" type="line"/>
      <point x="318" y="428" type="line"/>
      <point x="283" y="428" type="line"/>
      <point x="346" y="705" type="line"/>
      <point x="41" y="714" type="line"/>
      <point x="31" y="628" type="line"/>
      <point x="253" y="636" type="line"/>
      <point x="216" y="428" type="line"/>
      <point x="65" y="427" type="line"/>
      <point x="65" y="365" type="line"/>
      <point x="204" y="360" type="line"/>
      <point x="110" y="0" type="line"/>
    </contour>
  </outline>
</glyph>
<glyph name="eight" format="1">
  <advance width="339"/>
  <unicode hex="0038"/>
  <outline>
    <contour>
      <point x="256" y="0" type="line"/>
      <point x="284" y="53" type="line"/>
      <point x="293" y="313" type="line"/>
      <point x="228" y="351" type="line"/>
      <point x="278" y="375" type="line"/>
      <point x="295" y="697" type="line"/>
      <point x="142" y="710" type="line"/>
      <point x="63" y="673" type="line"/>
      <point x="65" y="391" type="line"/>
      <point x="114" y="349" type="line"/>
      <point x="58" y="293" type="line"/>
      <point x="35" y="64" type="line"/>
      <point x="58" y="0" type="line"/>
    </contour>
    <contour>
      <point x="112" y="57" type="line"/>
      <point x="141" y="322" type="line"/>
      <point x="229" y="292" type="line"/>
      <point x="220" y="57" type="line"/>
    </contour>
    <contour>
      <point x="136" y="647" type="line"/>
      <point x="228" y="648" type="line"/>
      <point x="211" y="376" type="line"/>
      <point x="132" y="400" type="line"/>
    </contour>
  </outline>
</glyph>
<glyph name="nine" format="1">
  <advance width="339"/>
  <unicode hex="0039"/>
  <outline>
    <contour>
      <point x="143" y="289" type="line"/>
      <point x="204" y="289" type="line"/>
      <point x="204" y="81" type="line"/>
      <point x="180" y="54" type="line"/>
      <point x="50" y="80" type="line"/>
      <point x="61" y="0" type="line"/>
      <point x="269" y="0" type="line"/>
      <point x="299" y="710" type="line"/>
      <point x="49" y="710" type="line"/>
      <point x="49" y="323" type="line"/>
    </contour>
    <contour>
      <point x="113" y="650" type="line"/>
      <point x="224" y="640" type="line"/>
      <point x="214" y="350" type="line"/>
      <point x="113" y="371" type="line"/>
    </contour>
  </outline>
</glyph>
<glyph name="semicolon" format="1">
  <advance width="206"/>
  <unicode hex="003B"/>
  <outline>
    <contour>
      <point x="156" y="486" type="line"/>
      <point x="60" y="490" type="line"/>
      <point x="64" y="394" type="line"/>
      <point x="156" y="394" type="line"/>
    </contour>
    <contour>
      <point x="101" y="0" type="line"/>
      <point x="60" y="-95" type="line"/>
      <point x="103" y="-110" type="line"/>
      <point x="151" y="0" type="line"/>
      <point x="155" y="96" type="line"/>
      <point x="69" y="92" type="line"/>
    </contour>
  </outline>
</glyph>
<glyph name="equal" format="1">
  <advance width="339"/>
  <unicode hex="003D"/>
  <outline>
    <contour>
      <point x="20" y="447" type="line"/>
      <point x="20" y="379" type="line"/>
      <point x="315" y="389" type="line"/>
      <point x="318" y="448" type="line"/>
    </contour>
    <contour>
      <point x="23" y="281" type="line"/>
      <point x="20" y="222" type="line"/>
      <point x="314" y="222" type="line"/>
      <point x="318" y="290" type="line"/>
    </contour>
  </outline>
</glyph>
<glyph name="greater" format="1">
  <advance width="339"/>
  <unicode hex="003E"/>
  <outline>
    <contour>
      <point x="308" y="298" type="line"/>
      <point x="304" y="364" type="line"/>
      <point x="66" y="516" type="line"/>
      <point x="30" y="458" type="line"/>
      <point x="236" y="334" type="line"/>
      <point x="236" y="330" type="line"/>
      <point x="32" y="241" type="line"/>
      <point x="87" y="158" type="line"/>
    </contour>
  </outline>
</glyph>
<glyph name="question" format="1">
  <advance width="334"/>
  <unicode hex="003F"/>
  <outline>
    <contour>
      <point x="146" y="155" type="line"/>
      <point x="160" y="319" type="line"/>
      <point x="257" y="464" type="line"/>
      <point x="270" y="710" type="line"/>
      <point x="137" y="710" type="line"/>
      <point x="51" y="690" type="line"/>
      <point x="51" y="549" type="line"/>
      <point x="100" y="542" type="line"/>
      <point x="103" y="622" type="line"/>
      <point x="121" y="646" type="line"/>
      <point x="195" y="646" type="line"/>
      <point x="183" y="492" type="line"/>
      <point x="101" y="359" type="line"/>
      <point x="101" y="163" type="line"/>
    </contour>
    <contour>
      <point x="78" y="0" type="line"/>
      <point x="170" y="0" type="line"/>
      <point x="174" y="96" type="line"/>
      <point x="78" y="92" type="line"/>
    </contour>
  </outline>
</glyph>
<glyph name="F" format="1">
  <advance width="281"/>
  <unicode hex="0046"/>
  <outline>
    <contour>
      <point x="133" y="0" type="line"/>
      <point x="133" y="355" type="line"/>
      <point x="237" y="373" type="line"/>
      <point x="237" y="423" type="line"/>
      <point x="128" y="423" type="line"/>
      <point x="128" y="622" type="line"/>
      <point x="251" y="622" type="line"/>
      <point x="251" y="710" type="line"/>
      <point x="68" y="710" type="line"/>
      <point x="45" y="0" type="line"/>
    </contour>
  </outline>
</glyph>
<glyph name="I" format="1">
  <advance width="178"/>
  <unicode hex="0049"/>
  <outline>
    <contour>
      <point x="133" y="710" type="line"/>
      <point x="32" y="710" type="line"/>
      <point x="32" y="664" type="line"/>
      <point x="50" y="616" type="line"/>
      <point x="50" y="0" type="line"/>
      <point x="124" y="0" type="line"/>
    </contour>
    <contour>
      <point x="160" y="10" type="move" name="ogonek"/>
    </contour>
    <contour>
      <point x="89" y="710" type="move" name="top"/>
    </contour>
  </outline>
</glyph>
<glyph name="P" format="1">
  <advance width="304"/>
  <unicode hex="0050"/>
  <outline>
    <contour>
      <point x="28" y="710" type="line"/>
      <point x="28" y="681" type="line"/>
      <point x="50" y="669" type="line"/>
      <point x="50" y="0" type="line"/>
      <point x="108" y="0" type="line"/>
      <point x="108" y="306" type="line"/>
      <point x="161" y="306" type="line" smooth="yes"/>
      <point x="254" y="306"/>
      <point x="264" y="367"/>
      <point x="264" y="379" type="curve" smooth="yes"/>
      <point x="264" y="661" type="line" smooth="yes"/>
      <point x="264" y="688"/>
      <point x="225" y="710"/>
      <point x="174" y="710" type="curve" smooth="yes"/>
    </contour>
    <contour>
      <point x="122" y="658" type="line" smooth="yes"/>
      <point x="122" y="663"/>
      <point x="126" y="665"/>
      <point x="134" y="665" type="curve" smooth="yes"/>
      <point x="151" y="665" type="line" smooth="yes"/>
      <point x="182" y="665"/>
      <point x="192" y="648"/>
      <point x="193" y="633" type="curve"/>
      <point x="183" y="381" type="line" smooth="yes"/>
      <point x="183" y="377"/>
      <point x="181" y="375"/>
      <point x="177" y="375" type="curve"/>
      <point x="134" y="365" type="line"/>
      <point x="127" y="365"/>
      <point x="122" y="370"/>
      <point x="122" y="373" type="curve" smooth="yes"/>
    </contour>
  </outline>
</glyph>
<glyph name="T" format="1">
  <advance width="275"/>
  <unicode hex="0054"/>
  <outline>
    <contour>
      <point x="250" y="710" type="line"/>
      <point x="35" y="710" type="line"/>
      <point x="25" y="672" type="line"/>
      <point x="94" y="660" type="line"/>
      <point x="94" y="20" type="line"/>
      <point x="178" y="20" type="line"/>
      <point x="178" y="653" type="line"/>
      <point x="250" y="653" type="line"/>
    </contour>
    <contour>
      <point x="138" y="355" type="move" name="center"/>
    </contour>
    <contour>
      <point x="138" y="0" type="move" name="bottom"/>
    </contour>
    <contour>
      <point x="138" y="710" type="move" name="top"/>
    </contour>
  </outline>
</glyph>
<glyph name="V" format="1">
  <advance width="281"/>
  <unicode hex="0056"/>
  <outline>
    <contour>
      <point x="189" y="0" type="line"/>
      <point x="274" y="710" type="line"/>
      <point x="209" y="710" type="line"/>
      <point x="161" y="78" type="line"/>
      <point x="157" y="78" type="line"/>
      <point x="86" y="710" type="line"/>
      <point x="7" y="710" type="line"/>
      <point x="123" y="-10" type="line"/>
    </contour>
  </outline>
</glyph>
<glyph name="X" format="1">
  <advance width="304"/>
  <unicode hex="0058"/>
  <outline>
    <contour>
      <point x="23" y="0" type="line"/>
      <point x="110" y="0" type="line"/>
      <point x="119" y="263" type="line"/>
      <point x="147" y="300" type="line"/>
      <point x="222" y="55" type="line"/>
      <point x="222" y="0" type="line"/>
      <point x="295" y="0" type="line"/>
      <point x="295" y="30" type="line"/>
      <point x="282" y="45" type="line"/>
      <point x="197" y="334" type="line"/>
      <point x="265" y="402" type="line"/>
      <point x="295" y="710" type="line"/>
      <point x="221" y="710" type="line"/>
      <point x="191" y="418" type="line"/>
      <point x="171" y="386" type="line"/>
      <point x="99" y="710" type="line"/>
      <point x="17" y="710" type="line"/>
      <point x="122" y="364" type="line"/>
      <point x="51" y="293" type="line"/>
    </contour>
  </outline>
</glyph>
<glyph name="Y" format="1">
  <advance width="247"/>
  <unicode hex="0059"/>
  <outline>
    <contour>
      <point x="164" y="389" type="line"/>
      <point x="217" y="451" type="line"/>
      <point x="217" y="710" type="line"/>
      <point x="161" y="710" type="line"/>
      <point x="143" y="428" type="line"/>
      <point x="107" y="431" type="line"/>
      <point x="94" y="710" type="line"/>
      <point x="30" y="710" type="line"/>
      <point x="30" y="472" type="line"/>
      <point x="97" y="353" type="line"/>
      <point x="97" y="-20" type="line"/>
      <point x="164" y="-20" type="line"/>
    </contour>
    <contour>
      <point x="124" y="710" type="move" name="top"/>
    </contour>
  </outline>
</glyph>
<glyph name="Z" format="1">
  <advance width="302"/>
  <unicode hex="005A"/>
  <outline>
    <contour>
      <point x="272" y="0" type="line"/>
      <point x="264" y="65" type="line"/>
      <point x="130" y="84" type="line"/>
      <point x="272" y="679" type="line"/>
      <point x="241" y="710" type="line"/>
      <point x="46" y="710" type="line"/>
      <point x="46" y="670" type="line"/>
      <point x="182" y="638" type="line"/>
      <point x="64" y="88" type="line"/>
      <point x="30" y="22" type="line"/>
      <point x="48" y="0" type="line"/>
    </contour>
    <contour>
      <point x="151" y="710" type="move" name="top"/>
    </contour>
  </outline>
</glyph>
<glyph name="underscore" format="1">
  <advance width="411"/>
  <unicode hex="005F"/>
  <outline>
    <contour>
      <point x="49" y="-40" type="line"/>
      <point x="49" y="-113" type="line"/>
      <point x="360" y="-102" type="line"/>
      <point x="363" y="-45" type="line"/>
    </contour>
  </outline>
</glyph>
<glyph name="b" format="1">
  <advance width="342"/>
  <unicode hex="0062"/>
  <outline>
    <contour>
      <point x="281" y="447" type="line"/>
      <point x="281" y="648" type="line" smooth="yes"/>
      <point x="281" y="688"/>
      <point x="224" y="710"/>
      <point x="183" y="710" type="curve" smooth="yes"/>
      <point x="50" y="710" type="line"/>
      <point x="50" y="0" type="line"/>
      <point x="186" y="0" type="line" smooth="yes"/>
      <point x="197" y="0"/>
      <point x="281" y="1"/>
      <point x="281" y="30" type="curve"/>
      <point x="301" y="282" type="line"/>
      <point x="301" y="331"/>
      <point x="261" y="359"/>
      <point x="240" y="364" type="curve"/>
    </contour>
    <contour>
      <point x="113" y="645" type="line"/>
      <point x="201" y="649" type="line" smooth="yes"/>
      <point x="210" y="649"/>
      <point x="215" y="648"/>
      <point x="215" y="645" type="curve" smooth="yes"/>
      <point x="206" y="406" type="line"/>
      <point x="205" y="403"/>
      <point x="205" y="402"/>
      <point x="204" y="401" type="curve" smooth="yes"/>
      <point x="201" y="398"/>
      <point x="199" y="397"/>
      <point x="197" y="397" type="curve" smooth="yes"/>
      <point x="125" y="397" type="line" smooth="yes"/>
      <point x="117" y="397"/>
      <point x="113" y="400"/>
      <point x="113" y="405" type="curve" smooth="yes"/>
    </contour>
    <contour>
      <point x="125" y="59" type="line"/>
      <point x="125" y="331" type="line"/>
      <point x="125" y="332"/>
      <point x="131" y="337"/>
      <point x="136" y="337" type="curve"/>
      <point x="212" y="327" type="line"/>
      <point x="217" y="327"/>
      <point x="219" y="326"/>
      <point x="219" y="324" type="curve" smooth="yes"/>
      <point x="219" y="323"/>
      <point x="218" y="322"/>
      <point x="216" y="321" type="curve"/>
      <point x="216" y="116" type="line"/>
      <point x="217" y="116"/>
      <point x="218" y="114"/>
      <point x="218" y="110" type="curve" smooth="yes"/>
      <point x="218" y="103"/>
      <point x="217" y="86"/>
      <point x="136" y="56" type="curve"/>
    </contour>
  </outline>
</glyph>
<glyph name="f" format="1">
  <advance width="311"/>
  <unicode hex="0066"/>
  <outline>
    <contour>
      <point x="137" y="-20" type="line"/>
      <point x="117" y="372" type="line"/>
      <point x="269" y="389" type="line"/>
      <point x="269" y="447" type="line"/>
      <point x="134" y="447" type="line"/>
      <point x="134" y="616" type="line"/>
      <point x="269" y="628" type="line"/>
      <point x="269" y="690" type="line"/>
      <point x="55" y="710" type="line"/>
      <point x="55" y="-20" type="line"/>
    </contour>
  </outline>
</glyph>
<glyph name="h" format="1">
  <advance width="333"/>
  <unicode hex="0068"/>
  <outline>
    <contour>
      <point x="239" y="0" type="line"/>
      <point x="283" y="0" type="line"/>
      <point x="283" y="710" type="line"/>
      <point x="210" y="710" type="line"/>
      <point x="210" y="400" type="line"/>
      <point x="111" y="395" type="line"/>
      <point x="122" y="710" type="line"/>
      <point x="50" y="710" type="line"/>
      <point x="50" y="0" type="line"/>
      <point x="124" y="0" type="line"/>
      <point x="124" y="327" type="line"/>
      <point x="210" y="310" type="line"/>
    </contour>
    <contour>
      <point x="167" y="246" type="move" name="center"/>
    </contour>
    <contour>
      <point x="167" y="492" type="move" name="top"/>
    </contour>
  </outline>
</glyph>
<glyph name="k" format="1">
  <advance width="302"/>
  <unicode hex="006B"/>
  <outline>
    <contour>
      <point x="279" y="21" type="line"/>
      <point x="199" y="369" type="line"/>
      <point x="240" y="401" type="line"/>
      <point x="261" y="710" type="line"/>
      <point x="175" y="687" type="line"/>
      <point x="186" y="432" type="line"/>
      <point x="115" y="372" type="line"/>
      <point x="115" y="710" type="line"/>
      <point x="73" y="710" type="line"/>
      <point x="47" y="700" type="line"/>
      <point x="60" y="0" type="line"/>
      <point x="127" y="0" type="line"/>
      <point x="127" y="321" type="line"/>
      <point x="149" y="338" type="line"/>
      <point x="202" y="0" type="line"/>
      <point x="261" y="0" type="line"/>
    </contour>
    <contour>
      <point x="151" y="0" type="move" name="bottom"/>
    </contour>
  </outline>
</glyph>
<glyph name="l" format="1">
  <advance width="287"/>
  <unicode hex="006C"/>
  <outline>
    <contour>
      <point x="252" y="69" type="line"/>
      <point x="139" y="82" type="line"/>
      <point x="124" y="105" type="line"/>
      <point x="124" y="710" type="line"/>
      <point x="50" y="710" type="line"/>
      <point x="50" y="0" type="line"/>
      <point x="252" y="0" type="line"/>
    </contour>
    <contour>
      <point x="144" y="492" type="move" name="top"/>
    </contour>
    <contour>
      <point x="144" y="0" type="move" name="bottom"/>
    </contour>
    <contour>
      <point x="267" y="492" type="move" name="topright"/>
    </contour>
  </outline>
</glyph>
<glyph name="m" format="1">
  <advance width="394"/>
  <unicode hex="006D"/>
  <outline>
    <contour>
      <point x="102" y="0" type="line"/>
      <point x="102" y="589" type="line"/>
      <point x="106" y="589" type="line"/>
      <point x="177" y="150" type="line"/>
      <point x="210" y="157" type="line"/>
      <point x="279" y="535" type="line"/>
      <point x="286" y="535" type="line"/>
      <point x="286" y="0" type="line"/>
      <point x="352" y="0" type="line"/>
      <point x="329" y="710" type="line"/>
      <point x="271" y="710" type="line"/>
      <point x="203" y="276" type="line"/>
      <point x="195" y="276" type="line"/>
      <point x="122" y="710" type="line"/>
      <point x="50" y="710" type="line"/>
      <point x="50" y="0" type="line"/>
    </contour>
  </outline>
</glyph>
<glyph name="p" format="1">
  <advance width="292"/>
  <unicode hex="0070"/>
  <outline>
    <contour>
      <point x="35" y="0" type="line"/>
      <point x="104" y="0" type="line"/>
      <point x="112" y="306" type="line"/>
      <point x="222" y="317" type="line"/>
      <point x="257" y="379" type="line"/>
      <point x="246" y="689" type="line" smooth="yes"/>
      <point x="246" y="704"/>
      <point x="225" y="710"/>
      <point x="210" y="710" type="curve" smooth="yes"/>
      <point x="167" y="710" type="line" smooth="yes"/>
      <point x="127" y="710"/>
      <point x="58" y="701"/>
      <point x="58" y="687" type="curve" smooth="yes"/>
    </contour>
    <contour>
      <point x="118" y="658" type="line"/>
      <point x="174" y="665" type="line"/>
      <point x="189" y="650" type="line"/>
      <point x="189" y="391" type="line" smooth="yes"/>
      <point x="189" y="387"/>
      <point x="187" y="385"/>
      <point x="183" y="385" type="curve" smooth="yes"/>
      <point x="118" y="382" type="line"/>
    </contour>
  </outline>
</glyph>
<glyph name="t" format="1">
  <advance width="275"/>
  <unicode hex="0074"/>
  <outline>
    <contour>
      <point x="38" y="710" type="line"/>
      <point x="25" y="639" type="line"/>
      <point x="97" y="615" type="line"/>
      <point x="77" y="0" type="line"/>
      <point x="162" y="0" type="line"/>
      <point x="162" y="633" type="line"/>
      <point x="250" y="633" type="line"/>
      <point x="245" y="696" type="line"/>
    </contour>
    <contour>
      <point x="138" y="246" type="move" name="center"/>
    </contour>
    <contour>
      <point x="138" y="0" type="move" name="bottom"/>
    </contour>
  </outline>
</glyph>
<glyph name="u" format="1">
  <advance width="304"/>
  <unicode hex="0075"/>
  <outline>
    <contour>
      <point x="58" y="700" type="line"/>
      <point x="35" y="-20" type="line"/>
      <point x="265" y="-20" type="line"/>
      <point x="265" y="683" type="line"/>
      <point x="195" y="687" type="line"/>
      <point x="195" y="68" type="line"/>
      <point x="111" y="62" type="line"/>
      <point x="132" y="700" type="line"/>
    </contour>
    <contour>
      <point x="274" y="10" type="move" name="ogonek"/>
    </contour>
    <contour>
      <point x="152" y="492" type="move" name="top"/>
    </contour>
  </outline>
</glyph>
<glyph name="w" format="1">
  <advance width="419"/>
  <unicode hex="0077"/>
  <outline>
    <contour>
      <point x="379" y="10" type="line"/>
      <point x="412" y="700" type="line"/>
      <point x="351" y="700" type="line"/>
      <point x="329" y="33" type="line"/>
      <point x="324" y="33" type="line"/>
      <point x="241" y="539" type="line"/>
      <point x="247" y="690" type="line"/>
      <point x="175" y="690" type="line"/>
      <point x="126" y="37" type="line"/>
      <point x="122" y="37" type="line"/>
      <point x="71" y="710" type="line"/>
      <point x="6" y="710" type="line"/>
      <point x="75" y="0" type="line"/>
      <point x="180" y="0" type="line"/>
      <point x="203" y="500" type="line"/>
      <point x="207" y="500" type="line"/>
      <point x="283" y="10" type="line"/>
    </contour>
    <contour>
      <point x="210" y="492" type="move" name="top"/>
    </contour>
  </outline>
</glyph>
<glyph name="x" format="1">
  <advance width="304"/>
  <unicode hex="0078"/>
  <outline>
    <contour>
      <point x="298" y="-11" type="line"/>
      <point x="209" y="343" type="line"/>
      <point x="280" y="690" type="line"/>
      <point x="213" y="690" type="line"/>
      <point x="176" y="399" type="line"/>
      <point x="141" y="390" type="line"/>
      <point x="101" y="710" type="line"/>
      <point x="23" y="710" type="line"/>
      <point x="87" y="386" type="line"/>
      <point x="9" y="0" type="line"/>
      <point x="87" y="0" type="line"/>
      <point x="131" y="324" type="line"/>
      <point x="159" y="339" type="line"/>
      <point x="202" y="-11" type="line"/>
    </contour>
  </outline>
</glyph>
<glyph name="y" format="1">
  <advance width="263"/>
  <unicode hex="0079"/>
  <outline>
    <contour>
      <point x="168" y="369" type="line"/>
      <point x="204" y="431" type="line"/>
      <point x="248" y="710" type="line"/>
      <point x="178" y="710" type="line"/>
      <point x="148" y="415" type="line"/>
      <point x="140" y="413" type="line"/>
      <point x="106" y="700" type="line"/>
      <point x="15" y="700" type="line"/>
      <point x="108" y="374" type="line"/>
      <point x="108" y="0" type="line"/>
      <point x="185" y="0" type="line"/>
    </contour>
    <contour>
      <point x="132" y="492" type="move" name="top"/>
    </contour>
  </outline>
</glyph>
<glyph name="z" format="1">
  <advance width="292"/>
  <unicode hex="007A"/>
  <outline>
    <contour>
      <point x="267" y="0" type="line"/>
      <point x="267" y="47" type="line"/>
      <point x="133" y="56" type="line"/>
      <point x="247" y="710" type="line"/>
      <point x="41" y="710" type="line"/>
      <point x="41" y="646" type="line"/>
      <point x="169" y="662" type="line"/>
      <point x="25" y="33" type="line"/>
      <point x="43" y="0" type="line"/>
    </contour>
    <contour>
      <point x="146" y="492" type="move" name="top"/>
    </contour>
  </outline>
</glyph>
<glyph name="braceleft" format="1">
  <advance width="273"/>
  <unicode hex="007B"/>
  <outline>
    <contour>
      <point x="77" y="762" type="line"/>
      <point x="67" y="752" type="line"/>
      <point x="67" y="462" type="line"/>
      <point x="27" y="377" type="line"/>
      <point x="-50" y="377" type="line"/>
      <point x="-48" y="324" type="line"/>
      <point x="26" y="328" type="line"/>
      <point x="66" y="211" type="line"/>
      <point x="77" y="-36" type="line"/>
      <point x="115" y="-76" type="line"/>
      <point x="223" y="-83" type="line"/>
      <point x="223" y="-34" type="line"/>
      <point x="135" y="-34" type="line"/>
      <point x="135" y="245" type="line"/>
      <point x="75" y="352" type="line"/>
      <point x="131" y="457" type="line"/>
      <point x="121" y="710" type="line"/>
      <point x="223" y="721" type="line"/>
      <point x="223" y="761" type="line"/>
    </contour>
  </outline>
</glyph>
<glyph name="bar" format="1">
  <advance width="192"/>
  <unicode hex="007C"/>
  <outline>
    <contour>
      <point x="118" y="762" type="line"/>
      <point x="75" y="762" type="line"/>
      <point x="75" y="-126" type="line"/>
      <point x="125" y="-129" type="line"/>
    </contour>
  </outline>
</glyph>
<glyph name="asciitilde" format="1">
  <advance width="398"/>
  <unicode hex="007E"/>
  <outline>
    <contour>
      <point x="40" y="353" type="line"/>
      <point x="43" y="279" type="line"/>
      <point x="85" y="306" type="line" smooth="yes"/>
      <point x="118" y="327"/>
      <point x="126" y="332"/>
      <point x="141" y="332" type="curve" smooth="yes"/>
      <point x="150" y="332"/>
      <point x="165" y="327"/>
      <point x="185" y="318" type="curve" smooth="yes"/>
      <point x="275" y="275" type="line"/>
      <point x="358" y="333" type="line"/>
      <point x="358" y="393" type="line"/>
      <point x="303" y="367" type="line" smooth="yes"/>
      <point x="278" y="355"/>
      <point x="263" y="348"/>
      <point x="252" y="348" type="curve" smooth="yes"/>
      <point x="237" y="348"/>
      <point x="222" y="353"/>
      <point x="193" y="366" type="curve" smooth="yes"/>
      <point x="134" y="393" type="line"/>
    </contour>
  </outline>
</glyph>
<glyph name="exclamdown" format="1">
  <advance width="206"/>
  <unicode hex="00A1"/>
  <outline>
    <contour>
      <point x="146" y="710" type="line"/>
      <point x="54" y="710" type="line"/>
      <point x="50" y="623" type="line"/>
      <point x="143" y="618" type="line"/>
    </contour>
    <contour>
      <point x="78" y="523" type="line"/>
      <point x="119" y="523" type="line"/>
      <point x="146" y="0" type="line"/>
      <point x="42" y="0" type="line"/>
    </contour>
  </outline>
</glyph>
<glyph name="sterling" format="1">
  <advance width="339"/>
  <unicode hex="00A3"/>
  <outline>
    <contour>
      <point x="102" y="336" type="line"/>
      <point x="118" y="196" type="line"/>
      <point x="75" y="71" type="line"/>
      <point x="32" y="43" type="line"/>
      <point x="32" y="0" type="line"/>
      <point x="307" y="0" type="line"/>
      <point x="307" y="64" type="line"/>
      <point x="161" y="82" type="line"/>
      <point x="192" y="202" type="line"/>
      <point x="174" y="335" type="line"/>
      <point x="298" y="335" type="line"/>
      <point x="295" y="394" type="line"/>
      <point x="165" y="399" type="line"/>
      <point x="133" y="642" type="line"/>
      <point x="157" y="651" type="line"/>
      <point x="228" y="651" type="line" smooth="yes"/>
      <point x="236" y="651"/>
      <point x="240" y="648"/>
      <point x="240" y="642" type="curve" smooth="yes"/>
      <point x="250" y="529" type="line"/>
      <point x="296" y="529" type="line"/>
      <point x="312" y="654" type="line"/>
      <point x="312" y="710" type="line"/>
      <point x="148" y="710" type="line" smooth="yes"/>
      <point x="96" y="710"/>
      <point x="68" y="685"/>
      <point x="68" y="654" type="curve"/>
      <point x="95" y="402" type="line"/>
      <point x="38" y="404" type="line"/>
      <point x="38" y="336" type="line"/>
    </contour>
  </outline>
</glyph>
<glyph name="brokenbar" format="1">
  <advance width="192"/>
  <unicode hex="00A6"/>
  <outline>
    <contour>
      <point x="118" y="762" type="line"/>
      <point x="75" y="762" type="line"/>
      <point x="75" y="404" type="line"/>
      <point x="125" y="401" type="line"/>
    </contour>
    <contour>
      <point x="72" y="-124" type="line"/>
      <point x="122" y="-121" type="line"/>
      <point x="122" y="237" type="line"/>
      <point x="79" y="237" type="line"/>
    </contour>
  </outline>
</glyph>
<glyph name="copyright" format="1">
  <advance width="576"/>
  <unicode hex="00A9"/>
  <outline>
    <contour>
      <point x="490" y="0" type="line"/>
      <point x="527" y="710" type="line"/>
      <point x="60" y="710" type="line"/>
      <point x="60" y="0" type="line"/>
    </contour>
    <contour>
      <point x="425" y="40" type="line"/>
      <point x="125" y="52" type="line"/>
      <point x="116" y="61" type="line"/>
      <point x="135" y="648" type="line"/>
      <point x="144" y="654" type="line"/>
      <point x="461" y="642" type="line"/>
      <point x="470" y="636" type="line"/>
    </contour>
    <contour>
      <point x="352" y="277" type="line"/>
      <point x="326" y="257" type="line"/>
      <point x="326" y="169" type="line" smooth="yes"/>
      <point x="326" y="165"/>
      <point x="322" y="163"/>
      <point x="314" y="163" type="curve" smooth="yes"/>
      <point x="255" y="163" type="line" smooth="yes"/>
      <point x="251" y="163"/>
      <point x="246" y="163"/>
      <point x="246" y="166" type="curve" smooth="yes"/>
      <point x="246" y="167"/>
      <point x="247" y="168"/>
      <point x="249" y="169" type="curve"/>
      <point x="249" y="467" type="line"/>
      <point x="247" y="468"/>
      <point x="246" y="472"/>
      <point x="246" y="480" type="curve" smooth="yes"/>
      <point x="246" y="500"/>
      <point x="254" y="530"/>
      <point x="282" y="530" type="curve" smooth="yes"/>
      <point x="304" y="530" type="line" smooth="yes"/>
      <point x="312" y="530"/>
      <point x="316" y="527"/>
      <point x="316" y="521" type="curve" smooth="yes"/>
      <point x="316" y="408" type="line"/>
      <point x="362" y="408" type="line"/>
      <point x="378" y="569" type="line"/>
      <point x="264" y="589" type="line"/>
      <point x="260" y="589"/>
      <point x="255" y="590"/>
      <point x="251" y="590" type="curve" smooth="yes"/>
      <point x="207" y="590"/>
      <point x="184" y="560"/>
      <point x="184" y="533" type="curve" smooth="yes"/>
      <point x="184" y="152" type="line"/>
      <point x="225" y="110" type="line"/>
      <point x="378" y="110" type="line"/>
      <point x="378" y="277" type="line"/>
    </contour>
  </outline>
</glyph>
<glyph name="macron" format="1">
  <advance width="328"/>
  <unicode hex="00AF"/>
  <outline>
    <contour>
      <point x="30" y="891" type="line"/>
      <point x="33" y="827" type="line"/>
      <point x="298" y="836" type="line"/>
      <point x="298" y="891" type="line"/>
    </contour>
    <contour>
      <point x="164" y="492" type="move" name="_top"/>
    </contour>
  </outline>
</glyph>
<glyph name="degree" format="1">
  <advance width="237"/>
  <unicode hex="00B0"/>
  <outline>
    <contour>
      <point x="186" y="710" type="line"/>
      <point x="77" y="710" type="line" smooth="yes"/>
      <point x="57" y="710"/>
      <point x="50" y="703"/>
      <point x="50" y="691" type="curve" smooth="yes"/>
      <point x="50" y="517" type="line" smooth="yes"/>
      <point x="50" y="514"/>
      <point x="105" y="505"/>
      <point x="160" y="505" type="curve" smooth="yes"/>
      <point x="179" y="505"/>
      <point x="191" y="512"/>
      <point x="191" y="517" type="curve" smooth="yes"/>
    </contour>
    <contour>
      <point x="89" y="661" type="line"/>
      <point x="143" y="674" type="line"/>
      <point x="148" y="669" type="line"/>
      <point x="144" y="558" type="line"/>
      <point x="144" y="557"/>
      <point x="143" y="556"/>
      <point x="140" y="555" type="curve"/>
      <point x="98" y="550" type="line"/>
      <point x="94" y="553" type="line"/>
    </contour>
  </outline>
</glyph>
<glyph name="plusminus" format="1">
  <advance width="339"/>
  <unicode hex="00B1"/>
  <outline>
    <contour>
      <point x="10" y="178" type="line"/>
      <point x="13" y="120" type="line"/>
      <point x="328" y="120" type="line"/>
      <point x="328" y="169" type="line"/>
    </contour>
    <contour>
      <point x="139" y="598" type="line"/>
      <point x="145" y="443" type="line"/>
      <point x="10" y="448" type="line"/>
      <point x="10" y="390" type="line"/>
      <point x="140" y="390" type="line"/>
      <point x="140" y="240" type="line"/>
      <point x="188" y="240" type="line"/>
      <point x="198" y="390" type="line"/>
      <point x="328" y="390" type="line"/>
      <point x="328" y="439" type="line"/>
      <point x="198" y="448" type="line"/>
      <point x="198" y="598" type="line"/>
    </contour>
  </outline>
</glyph>
<glyph name="uni00B9" format="1">
  <advance width="245"/>
  <unicode hex="00B9"/>
  <outline>
    <contour>
      <point x="45" y="345" type="line"/>
      <point x="200" y="345" type="line"/>
      <point x="194" y="399" type="line"/>
      <point x="147" y="397" type="line"/>
      <point x="147" y="710" type="line"/>
      <point x="112" y="710" type="line"/>
      <point x="47" y="679" type="line"/>
      <point x="46" y="652" type="line"/>
      <point x="97" y="649" type="line"/>
      <point x="89" y="395" type="line"/>
      <point x="45" y="394" type="line"/>
    </contour>
  </outline>
</glyph>
<glyph name="ordmasculine" format="1">
  <advance width="237"/>
  <unicode hex="00BA"/>
  <outline>
    <contour>
      <point x="55" y="355" type="line"/>
      <point x="160" y="355" type="line" smooth="yes"/>
      <point x="180" y="355"/>
      <point x="187" y="362"/>
      <point x="187" y="374" type="curve" smooth="yes"/>
      <point x="187" y="698" type="line" smooth="yes"/>
      <point x="187" y="701"/>
      <point x="136" y="710"/>
      <point x="81" y="710" type="curve" smooth="yes"/>
      <point x="62" y="710"/>
      <point x="50" y="703"/>
      <point x="50" y="698" type="curve" smooth="yes"/>
    </contour>
    <contour>
      <point x="148" y="404" type="line"/>
      <point x="98" y="391" type="line"/>
      <point x="93" y="396" type="line"/>
      <point x="103" y="657" type="line"/>
      <point x="103" y="658"/>
      <point x="104" y="659"/>
      <point x="107" y="660" type="curve" smooth="yes"/>
      <point x="139" y="665" type="line"/>
      <point x="143" y="662" type="line"/>
    </contour>
  </outline>
</glyph>
<glyph name="onequarter" format="1">
  <advance width="449"/>
  <unicode hex="00BC"/>
  <outline>
    <contour>
      <point x="429" y="679" type="line"/>
      <point x="395" y="707" type="line"/>
      <point x="34" y="33" type="line"/>
      <point x="73" y="-2" type="line"/>
    </contour>
    <contour>
      <point x="393" y="0" type="line"/>
      <point x="393" y="325" type="line"/>
      <point x="317" y="325" type="line"/>
      <point x="241" y="121" type="line"/>
      <point x="263" y="90" type="line"/>
      <point x="349" y="90" type="line"/>
      <point x="346" y="0" type="line"/>
    </contour>
    <contour>
      <point x="20" y="395" type="line"/>
      <point x="170" y="395" type="line"/>
      <point x="164" y="449" type="line"/>
      <point x="117" y="447" type="line"/>
      <point x="117" y="710" type="line"/>
      <point x="87" y="710" type="line"/>
      <point x="22" y="679" type="line"/>
      <point x="21" y="652" type="line"/>
      <point x="73" y="649" type="line"/>
      <point x="65" y="445" type="line"/>
      <point x="20" y="444" type="line"/>
    </contour>
    <contour>
      <point x="295" y="128" type="line"/>
      <point x="347" y="298" type="line"/>
      <point x="351" y="298" type="line"/>
      <point x="344" y="133" type="line"/>
    </contour>
  </outline>
</glyph>
<glyph name="threequarters" format="1">
  <advance width="449"/>
  <unicode hex="00BE"/>
  <outline>
    <contour>
      <point x="429" y="679" type="line"/>
      <point x="395" y="707" type="line"/>
      <point x="34" y="33" type="line"/>
      <point x="73" y="-2" type="line"/>
    </contour>
    <contour>
      <point x="393" y="0" type="line"/>
      <point x="393" y="325" type="line"/>
      <point x="317" y="325" type="line"/>
      <point x="241" y="121" type="line"/>
      <point x="263" y="90" type="line"/>
      <point x="349" y="90" type="line"/>
      <point x="346" y="0" type="line"/>
    </contour>
    <contour>
      <point x="295" y="128" type="line"/>
      <point x="347" y="298" type="line"/>
      <point x="351" y="298" type="line"/>
      <point x="344" y="133" type="line"/>
    </contour>
    <contour>
      <point x="180" y="615" type="line"/>
      <point x="180" y="710" type="line"/>
      <point x="64" y="710" type="line"/>
      <point x="36" y="684" type="line"/>
      <point x="36" y="657" type="line"/>
      <point x="135" y="661" type="line"/>
      <point x="133" y="624" type="line"/>
      <point x="48" y="578" type="line"/>
      <point x="68" y="553" type="line"/>
      <point x="126" y="556" type="line"/>
      <point x="134" y="445" type="line"/>
      <point x="86" y="450" type="line"/>
      <point x="81" y="511" type="line"/>
      <point x="41" y="511" type="line"/>
      <point x="41" y="395" type="line"/>
      <point x="151" y="395" type="line"/>
      <point x="178" y="425" type="line"/>
      <point x="178" y="565" type="line"/>
      <point x="174" y="570"/>
      <point x="168" y="581"/>
      <point x="163" y="588" type="curve"/>
      <point x="176" y="601" type="line"/>
    </contour>
  </outline>
</glyph>
<glyph name="questiondown" format="1">
  <advance width="334"/>
  <unicode hex="00BF"/>
  <outline>
    <contour>
      <point x="199" y="526" type="line"/>
      <point x="186" y="372" type="line"/>
      <point x="89" y="246" type="line"/>
      <point x="76" y="0" type="line"/>
      <point x="209" y="0" type="line"/>
      <point x="295" y="20" type="line"/>
      <point x="274" y="161" type="line"/>
      <point x="225" y="168" type="line"/>
      <point x="225" y="64" type="line"/>
      <point x="151" y="64" type="line"/>
      <point x="163" y="218" type="line"/>
      <point x="245" y="332" type="line"/>
      <point x="244" y="525" type="line"/>
    </contour>
    <contour>
      <point x="266" y="710" type="line"/>
      <point x="174" y="710" type="line"/>
      <point x="170" y="623" type="line"/>
      <point x="263" y="618" type="line"/>
    </contour>
  </outline>
</glyph>
<glyph name="Aacute" format="1">
  <advance width="304"/>
  <unicode hex="00C1"/>
  <outline>
    <contour>
      <point x="254" y="710" type="line"/>
      <point x="71" y="710" type="line"/>
      <point x="26" y="0" type="line"/>
      <point x="73" y="0" type="line"/>
      <point x="119" y="278" type="line"/>
      <point x="170" y="278" type="line"/>
      <point x="196" y="0" type="line"/>
      <point x="254" y="0" type="line"/>
    </contour>
    <contour>
      <point x="191" y="331" type="line" smooth="yes"/>
      <point x="191" y="327"/>
      <point x="189" y="325"/>
      <point x="185" y="325" type="curve" smooth="yes"/>
      <point x="142" y="325" type="line" smooth="yes"/>
      <point x="138" y="325"/>
      <point x="136" y="327"/>
      <point x="136" y="330" type="curve" smooth="yes"/>
      <point x="136" y="672" type="line" smooth="yes"/>
      <point x="136" y="676"/>
      <point x="138" y="678"/>
      <point x="142" y="678" type="curve" smooth="yes"/>
      <point x="185" y="678" type="line" smooth="yes"/>
      <point x="189" y="678"/>
      <point x="191" y="676"/>
      <point x="191" y="672" type="curve" smooth="yes"/>
    </contour>
    <contour>
      <point x="118" y="792" type="line"/>
      <point x="152" y="768" type="line"/>
      <point x="248" y="852" type="line"/>
      <point x="202" y="900" type="line"/>
    </contour>
  </outline>
</glyph>
<glyph name="Acircumflex" format="1">
  <advance width="304"/>
  <unicode hex="00C2"/>
  <outline>
    <contour>
      <point x="254" y="710" type="line"/>
      <point x="71" y="710" type="line"/>
      <point x="26" y="0" type="line"/>
      <point x="73" y="0" type="line"/>
      <point x="119" y="278" type="line"/>
      <point x="170" y="278" type="line"/>
      <point x="196" y="0" type="line"/>
      <point x="254" y="0" type="line"/>
    </contour>
    <contour>
      <point x="191" y="331" type="line" smooth="yes"/>
      <point x="191" y="327"/>
      <point x="189" y="325"/>
      <point x="185" y="325" type="curve" smooth="yes"/>
      <point x="142" y="325" type="line" smooth="yes"/>
      <point x="138" y="325"/>
      <point x="136" y="327"/>
      <point x="136" y="330" type="curve" smooth="yes"/>
      <point x="136" y="672" type="line" smooth="yes"/>
      <point x="136" y="676"/>
      <point x="138" y="678"/>
      <point x="142" y="678" type="curve" smooth="yes"/>
      <point x="185" y="678" type="line" smooth="yes"/>
      <point x="189" y="678"/>
      <point x="191" y="676"/>
      <point x="191" y="672" type="curve" smooth="yes"/>
    </contour>
    <contour>
      <point x="68" y="786" type="line"/>
      <point x="97" y="767" type="line"/>
      <point x="162" y="829" type="line"/>
      <point x="227" y="767" type="line"/>
      <point x="256" y="786" type="line"/>
      <point x="182" y="896" type="line"/>
      <point x="142" y="899" type="line"/>
    </contour>
  </outline>
</glyph>
<glyph name="Atilde" format="1">
  <advance width="304"/>
  <unicode hex="00C3"/>
  <outline>
    <contour>
      <point x="254" y="710" type="line"/>
      <point x="71" y="710" type="line"/>
      <point x="26" y="0" type="line"/>
      <point x="73" y="0" type="line"/>
      <point x="119" y="278" type="line"/>
      <point x="170" y="278" type="line"/>
      <point x="196" y="0" type="line"/>
      <point x="254" y="0" type="line"/>
    </contour>
    <contour>
      <point x="191" y="331" type="line" smooth="yes"/>
      <point x="191" y="327"/>
      <point x="189" y="325"/>
      <point x="185" y="325" type="curve" smooth="yes"/>
      <point x="142" y="325" type="line" smooth="yes"/>
      <point x="138" y="325"/>
      <point x="136" y="327"/>
      <point x="136" y="330" type="curve" smooth="yes"/>
      <point x="136" y="672" type="line" smooth="yes"/>
      <point x="136" y="676"/>
      <point x="138" y="678"/>
      <point x="142" y="678" type="curve" smooth="yes"/>
      <point x="185" y="678" type="line" smooth="yes"/>
      <point x="189" y="678"/>
      <point x="191" y="676"/>
      <point x="191" y="672" type="curve" smooth="yes"/>
    </contour>
    <contour>
      <point x="107" y="897"/>
      <point x="95" y="892"/>
      <point x="84" y="883" type="curve" smooth="yes"/>
      <point x="58" y="860" type="line"/>
      <point x="61" y="791" type="line"/>
      <point x="129" y="844" type="line"/>
      <point x="173" y="813" type="line" smooth="yes"/>
      <point x="190" y="801"/>
      <point x="203" y="794"/>
      <point x="218" y="794" type="curve" smooth="yes"/>
      <point x="230" y="794"/>
      <point x="249" y="805"/>
      <point x="262" y="817" type="curve" smooth="yes"/>
      <point x="286" y="840" type="line"/>
      <point x="286" y="900" type="line"/>
      <point x="214" y="852" type="line"/>
      <point x="176" y="877" type="line" smooth="yes"/>
      <point x="160" y="888"/>
      <point x="141" y="897"/>
      <point x="122" y="897" type="curve" smooth="yes"/>
    </contour>
  </outline>
</glyph>
<glyph name="Adieresis" format="1">
  <advance width="304"/>
  <unicode hex="00C4"/>
  <outline>
    <contour>
      <point x="254" y="710" type="line"/>
      <point x="71" y="710" type="line"/>
      <point x="26" y="0" type="line"/>
      <point x="73" y="0" type="line"/>
      <point x="119" y="278" type="line"/>
      <point x="170" y="278" type="line"/>
      <point x="196" y="0" type="line"/>
      <point x="254" y="0" type="line"/>
    </contour>
    <contour>
      <point x="191" y="331" type="line" smooth="yes"/>
      <point x="191" y="327"/>
      <point x="189" y="325"/>
      <point x="185" y="325" type="curve" smooth="yes"/>
      <point x="142" y="325" type="line" smooth="yes"/>
      <point x="138" y="325"/>
      <point x="136" y="327"/>
      <point x="136" y="330" type="curve" smooth="yes"/>
      <point x="136" y="672" type="line" smooth="yes"/>
      <point x="136" y="676"/>
      <point x="138" y="678"/>
      <point x="142" y="678" type="curve" smooth="yes"/>
      <point x="185" y="678" type="line" smooth="yes"/>
      <point x="189" y="678"/>
      <point x="191" y="676"/>
      <point x="191" y="672" type="curve" smooth="yes"/>
    </contour>
    <contour>
      <point x="37" y="817" type="line"/>
      <point x="116" y="817" type="line"/>
      <point x="120" y="900" type="line"/>
      <point x="37" y="897" type="line"/>
    </contour>
    <contour>
      <point x="190" y="817" type="line"/>
      <point x="266" y="820" type="line"/>
      <point x="266" y="900" type="line"/>
      <point x="187" y="900" type="line"/>
    </contour>
  </outline>
</glyph>
<glyph name="Aring" format="1">
  <advance width="304"/>
  <unicode hex="00C5"/>
  <outline>
    <contour>
      <point x="254" y="710" type="line"/>
      <point x="71" y="710" type="line"/>
      <point x="26" y="0" type="line"/>
      <point x="73" y="0" type="line"/>
      <point x="119" y="278" type="line"/>
      <point x="170" y="278" type="line"/>
      <point x="196" y="0" type="line"/>
      <point x="254" y="0" type="line"/>
    </contour>
    <contour>
      <point x="191" y="331" type="line" smooth="yes"/>
      <point x="191" y="327"/>
      <point x="189" y="325"/>
      <point x="185" y="325" type="curve" smooth="yes"/>
      <point x="142" y="325" type="line" smooth="yes"/>
      <point x="138" y="325"/>
      <point x="136" y="327"/>
      <point x="136" y="330" type="curve" smooth="yes"/>
      <point x="136" y="672" type="line" smooth="yes"/>
      <point x="136" y="676"/>
      <point x="138" y="678"/>
      <point x="142" y="678" type="curve" smooth="yes"/>
      <point x="185" y="678" type="line" smooth="yes"/>
      <point x="189" y="678"/>
      <point x="191" y="676"/>
      <point x="191" y="672" type="curve" smooth="yes"/>
    </contour>
    <contour>
      <point x="99" y="899" type="line"/>
      <point x="99" y="764" type="line"/>
      <point x="213" y="764" type="line"/>
      <point x="238" y="790" type="line"/>
      <point x="238" y="899" type="line"/>
    </contour>
    <contour>
      <point x="148" y="799" type="line" smooth="yes"/>
      <point x="144" y="799"/>
      <point x="142" y="800"/>
      <point x="142" y="803" type="curve" smooth="yes"/>
      <point x="142" y="869" type="line" smooth="yes"/>
      <point x="142" y="871"/>
      <point x="145" y="872"/>
      <point x="150" y="872" type="curve"/>
      <point x="190" y="867" type="line"/>
      <point x="194" y="865"/>
      <point x="196" y="863"/>
      <point x="196" y="861" type="curve" smooth="yes"/>
      <point x="196" y="805" type="line" smooth="yes"/>
      <point x="196" y="801"/>
      <point x="194" y="799"/>
      <point x="189" y="799" type="curve" smooth="yes"/>
    </contour>
  </outline>
</glyph>
<glyph name="Eacute" format="1">
  <advance width="316"/>
  <unicode hex="00C9"/>
  <outline>
    <contour>
      <point x="269" y="121" type="line"/>
      <point x="134" y="103" type="line"/>
      <point x="134" y="358" type="line"/>
      <point x="238" y="376" type="line"/>
      <point x="238" y="426" type="line"/>
      <point x="129" y="426" type="line"/>
      <point x="129" y="632" type="line"/>
      <point x="272" y="632" type="line"/>
      <point x="272" y="710" type="line"/>
      <point x="69" y="710" type="line"/>
      <point x="46" y="20" type="line"/>
      <point x="281" y="20" type="line"/>
    </contour>
    <contour>
      <point x="113" y="792" type="line"/>
      <point x="147" y="768" type="line"/>
      <point x="243" y="852" type="line"/>
      <point x="197" y="900" type="line"/>
    </contour>
  </outline>
</glyph>
<glyph name="Igrave" format="1">
  <advance width="178"/>
  <unicode hex="00CC"/>
  <outline>
    <contour>
      <point x="133" y="710" type="line"/>
      <point x="32" y="710" type="line"/>
      <point x="32" y="664" type="line"/>
      <point x="50" y="616" type="line"/>
      <point x="50" y="0" type="line"/>
      <point x="124" y="0" type="line"/>
    </contour>
    <contour>
      <point x="60" y="900" type="line"/>
      <point x="14" y="852" type="line"/>
      <point x="110" y="768" type="line"/>
      <point x="144" y="792" type="line"/>
    </contour>
  </outline>
</glyph>
<glyph name="Icircumflex" format="1">
  <advance width="178"/>
  <unicode hex="00CE"/>
  <outline>
    <contour>
      <point x="133" y="710" type="line"/>
      <point x="32" y="710" type="line"/>
      <point x="32" y="664" type="line"/>
      <point x="50" y="616" type="line"/>
      <point x="50" y="0" type="line"/>
      <point x="124" y="0" type="line"/>
    </contour>
    <contour>
      <point x="-5" y="786" type="line"/>
      <point x="24" y="767" type="line"/>
      <point x="89" y="829" type="line"/>
      <point x="154" y="767" type="line"/>
      <point x="183" y="786" type="line"/>
      <point x="109" y="896" type="line"/>
      <point x="69" y="899" type="line"/>
    </contour>
  </outline>
</glyph>
<glyph name="Idieresis" format="1">
  <advance width="178"/>
  <unicode hex="00CF"/>
  <outline>
    <contour>
      <point x="133" y="710" type="line"/>
      <point x="32" y="710" type="line"/>
      <point x="32" y="664" type="line"/>
      <point x="50" y="616" type="line"/>
      <point x="50" y="0" type="line"/>
      <point x="124" y="0" type="line"/>
    </contour>
    <contour>
      <point x="-25" y="817" type="line"/>
      <point x="54" y="817" type="line"/>
      <point x="58" y="900" type="line"/>
      <point x="-25" y="897" type="line"/>
    </contour>
    <contour>
      <point x="128" y="817" type="line"/>
      <point x="204" y="820" type="line"/>
      <point x="204" y="900" type="line"/>
      <point x="125" y="900" type="line"/>
    </contour>
  </outline>
</glyph>
<glyph name="Ograve" format="1">
  <advance width="318"/>
  <unicode hex="00D2"/>
  <outline>
    <contour>
      <point x="50" y="678" type="line"/>
      <point x="50" y="42" type="line"/>
      <point x="109" y="0" type="line"/>
      <point x="205" y="0" type="line"/>
      <point x="268" y="36" type="line"/>
      <point x="268" y="682" type="line"/>
      <point x="228" y="710" type="line"/>
      <point x="93" y="710" type="line"/>
    </contour>
    <contour>
      <point x="191" y="76" type="line" smooth="yes"/>
      <point x="191" y="72"/>
      <point x="188" y="70"/>
      <point x="182" y="70" type="curve" smooth="yes"/>
      <point x="140" y="70" type="line" smooth="yes"/>
      <point x="134" y="70"/>
      <point x="131" y="72"/>
      <point x="131" y="76" type="curve" smooth="yes"/>
      <point x="131" y="649" type="line" smooth="yes"/>
      <point x="131" y="655"/>
      <point x="134" y="658"/>
      <point x="140" y="658" type="curve" smooth="yes"/>
      <point x="192" y="658" type="line" smooth="yes"/>
      <point x="198" y="658"/>
      <point x="201" y="655"/>
      <point x="201" y="649" type="curve" smooth="yes"/>
    </contour>
    <contour>
      <point x="140" y="900" type="line"/>
      <point x="94" y="852" type="line"/>
      <point x="190" y="768" type="line"/>
      <point x="224" y="792" type="line"/>
    </contour>
  </outline>
</glyph>
<glyph name="Otilde" format="1">
  <advance width="318"/>
  <unicode hex="00D5"/>
  <outline>
    <contour>
      <point x="50" y="678" type="line"/>
      <point x="50" y="42" type="line"/>
      <point x="109" y="0" type="line"/>
      <point x="205" y="0" type="line"/>
      <point x="268" y="36" type="line"/>
      <point x="268" y="682" type="line"/>
      <point x="228" y="710" type="line"/>
      <point x="93" y="710" type="line"/>
    </contour>
    <contour>
      <point x="191" y="76" type="line" smooth="yes"/>
      <point x="191" y="72"/>
      <point x="188" y="70"/>
      <point x="182" y="70" type="curve" smooth="yes"/>
      <point x="140" y="70" type="line" smooth="yes"/>
      <point x="134" y="70"/>
      <point x="131" y="72"/>
      <point x="131" y="76" type="curve" smooth="yes"/>
      <point x="131" y="649" type="line" smooth="yes"/>
      <point x="131" y="655"/>
      <point x="134" y="658"/>
      <point x="140" y="658" type="curve" smooth="yes"/>
      <point x="192" y="658" type="line" smooth="yes"/>
      <point x="198" y="658"/>
      <point x="201" y="655"/>
      <point x="201" y="649" type="curve" smooth="yes"/>
    </contour>
    <contour>
      <point x="104" y="896"/>
      <point x="92" y="891"/>
      <point x="81" y="882" type="curve" smooth="yes"/>
      <point x="55" y="859" type="line"/>
      <point x="58" y="790" type="line"/>
      <point x="126" y="843" type="line"/>
      <point x="170" y="812" type="line" smooth="yes"/>
      <point x="187" y="800"/>
      <point x="200" y="793"/>
      <point x="215" y="793" type="curve" smooth="yes"/>
      <point x="227" y="793"/>
      <point x="246" y="804"/>
      <point x="259" y="816" type="curve" smooth="yes"/>
      <point x="283" y="839" type="line"/>
      <point x="283" y="899" type="line"/>
      <point x="211" y="851" type="line"/>
      <point x="173" y="876" type="line" smooth="yes"/>
      <point x="157" y="887"/>
      <point x="138" y="896"/>
      <point x="119" y="896" type="curve" smooth="yes"/>
    </contour>
  </outline>
</glyph>
<glyph name="Uacute" format="1">
  <advance width="310"/>
  <unicode hex="00DA"/>
  <outline>
    <contour>
      <point x="261" y="710" type="line"/>
      <point x="176" y="710" type="line"/>
      <point x="197" y="63" type="line"/>
      <point x="110" y="69" type="line"/>
      <point x="110" y="687" type="line"/>
      <point x="50" y="687" type="line"/>
      <point x="50" y="0" type="line"/>
      <point x="217" y="0" type="line" smooth="yes"/>
      <point x="236" y="0"/>
      <point x="260" y="21"/>
      <point x="260" y="40" type="curve" smooth="yes"/>
    </contour>
    <contour>
      <point x="110" y="792" type="line"/>
      <point x="144" y="768" type="line"/>
      <point x="240" y="852" type="line"/>
      <point x="194" y="900" type="line"/>
    </contour>
  </outline>
</glyph>
<glyph name="Yacute" format="1">
  <advance width="247"/>
  <unicode hex="00DD"/>
  <outline>
    <contour>
      <point x="164" y="-20" type="line"/>
      <point x="97" y="-20" type="line"/>
      <point x="97" y="353" type="line"/>
      <point x="30" y="472" type="line"/>
      <point x="30" y="710" type="line"/>
      <point x="94" y="710" type="line"/>
      <point x="107" y="431" type="line"/>
      <point x="143" y="428" type="line"/>
      <point x="161" y="710" type="line"/>
      <point x="217" y="710" type="line"/>
      <point x="217" y="451" type="line"/>
      <point x="164" y="389" type="line"/>
    </contour>
    <contour>
      <point x="78" y="792" type="line"/>
      <point x="112" y="768" type="line"/>
      <point x="208" y="852" type="line"/>
      <point x="162" y="900" type="line"/>
    </contour>
  </outline>
</glyph>
<glyph name="aacute" format="1">
  <advance width="308"/>
  <unicode hex="00E1"/>
  <outline>
    <contour>
      <point x="234" y="710" type="line"/>
      <point x="76" y="710" type="line"/>
      <point x="31" y="0" type="line"/>
      <point x="93" y="0" type="line"/>
      <point x="115" y="228" type="line"/>
      <point x="195" y="266" type="line"/>
      <point x="231" y="0" type="line"/>
      <point x="275" y="0" type="line"/>
    </contour>
    <contour>
      <point x="176" y="303" type="line" smooth="yes"/>
      <point x="176" y="299"/>
      <point x="174" y="297"/>
      <point x="170" y="297" type="curve"/>
      <point x="133" y="291" type="line"/>
      <point x="129" y="291"/>
      <point x="127" y="293"/>
      <point x="127" y="296" type="curve" smooth="yes"/>
      <point x="127" y="648" type="line" smooth="yes"/>
      <point x="127" y="653"/>
      <point x="129" y="656"/>
      <point x="133" y="658" type="curve"/>
      <point x="176" y="668" type="line"/>
      <point x="180" y="668"/>
      <point x="182" y="666"/>
      <point x="182" y="662" type="curve" smooth="yes"/>
    </contour>
    <contour>
      <point x="99" y="792" type="line"/>
      <point x="133" y="768" type="line"/>
      <point x="229" y="852" type="line"/>
      <point x="183" y="900" type="line"/>
    </contour>
  </outline>
</glyph>
<glyph name="atilde" format="1">
  <advance width="308"/>
  <unicode hex="00E3"/>
  <outline>
    <contour>
      <point x="234" y="710" type="line"/>
      <point x="76" y="710" type="line"/>
      <point x="31" y="0" type="line"/>
      <point x="93" y="0" type="line"/>
      <point x="115" y="228" type="line"/>
      <point x="195" y="266" type="line"/>
      <point x="231" y="0" type="line"/>
      <point x="275" y="0" type="line"/>
    </contour>
    <contour>
      <point x="176" y="303" type="line" smooth="yes"/>
      <point x="176" y="299"/>
      <point x="174" y="297"/>
      <point x="170" y="297" type="curve"/>
      <point x="133" y="291" type="line"/>
      <point x="129" y="291"/>
      <point x="127" y="293"/>
      <point x="127" y="296" type="curve" smooth="yes"/>
      <point x="127" y="648" type="line" smooth="yes"/>
      <point x="127" y="653"/>
      <point x="129" y="656"/>
      <point x="133" y="658" type="curve"/>
      <point x="176" y="668" type="line"/>
      <point x="180" y="668"/>
      <point x="182" y="666"/>
      <point x="182" y="662" type="curve" smooth="yes"/>
    </contour>
    <contour>
      <point x="89" y="897"/>
      <point x="77" y="892"/>
      <point x="66" y="883" type="curve" smooth="yes"/>
      <point x="40" y="860" type="line"/>
      <point x="43" y="791" type="line"/>
      <point x="111" y="844" type="line"/>
      <point x="155" y="813" type="line" smooth="yes"/>
      <point x="172" y="801"/>
      <point x="185" y="794"/>
      <point x="200" y="794" type="curve" smooth="yes"/>
      <point x="212" y="794"/>
      <point x="231" y="805"/>
      <point x="244" y="817" type="curve" smooth="yes"/>
      <point x="268" y="840" type="line"/>
      <point x="268" y="900" type="line"/>
      <point x="196" y="852" type="line"/>
      <point x="158" y="877" type="line" smooth="yes"/>
      <point x="142" y="888"/>
      <point x="123" y="897"/>
      <point x="104" y="897" type="curve" smooth="yes"/>
    </contour>
  </outline>
</glyph>
<glyph name="ccedilla" format="1">
  <advance width="334"/>
  <unicode hex="00E7"/>
  <outline>
    <contour>
      <point x="263" y="186" type="line"/>
      <point x="244" y="174" type="line"/>
      <point x="244" y="99" type="line" smooth="yes"/>
      <point x="244" y="95"/>
      <point x="240" y="93"/>
      <point x="232" y="93" type="curve" smooth="yes"/>
      <point x="133" y="93" type="line" smooth="yes"/>
      <point x="129" y="93"/>
      <point x="124" y="93"/>
      <point x="124" y="96" type="curve" smooth="yes"/>
      <point x="124" y="97"/>
      <point x="125" y="98"/>
      <point x="127" y="99" type="curve"/>
      <point x="127" y="567" type="line"/>
      <point x="125" y="568"/>
      <point x="124" y="572"/>
      <point x="124" y="580" type="curve" smooth="yes"/>
      <point x="124" y="600"/>
      <point x="132" y="630"/>
      <point x="160" y="630" type="curve" smooth="yes"/>
      <point x="222" y="630" type="line" smooth="yes"/>
      <point x="230" y="630"/>
      <point x="234" y="627"/>
      <point x="234" y="621" type="curve" smooth="yes"/>
      <point x="234" y="528" type="line"/>
      <point x="280" y="528" type="line"/>
      <point x="296" y="689" type="line"/>
      <point x="142" y="709" type="line" smooth="yes"/>
      <point x="138" y="709"/>
      <point x="133" y="710"/>
      <point x="129" y="710" type="curve" smooth="yes"/>
      <point x="85" y="710"/>
      <point x="63" y="680"/>
      <point x="62" y="653" type="curve" smooth="yes"/>
      <point x="42" y="62" type="line"/>
      <point x="83" y="20" type="line"/>
      <point x="126" y="20" type="line"/>
      <point x="96" y="-89" type="line"/>
      <point x="201" y="-97" type="line"/>
      <point x="191" y="-150" type="line"/>
      <point x="62" y="-150" type="line"/>
      <point x="62" y="-208" type="line"/>
      <point x="185" y="-208" type="line" smooth="yes"/>
      <point x="214" y="-208"/>
      <point x="249" y="-176"/>
      <point x="249" y="-148" type="curve"/>
      <point x="273" y="-45" type="line"/>
      <point x="161" y="-45" type="line"/>
      <point x="195" y="20" type="line"/>
      <point x="296" y="20" type="line"/>
      <point x="296" y="187" type="line"/>
    </contour>
  </outline>
</glyph>
<glyph name="eacute" format="1">
  <advance width="330"/>
  <unicode hex="00E9"/>
  <outline>
    <contour>
      <point x="269" y="83" type="line"/>
      <point x="127" y="75" type="line"/>
      <point x="127" y="362" type="line"/>
      <point x="269" y="356" type="line"/>
      <point x="269" y="404" type="line"/>
      <point x="144" y="427" type="line"/>
      <point x="144" y="654" type="line"/>
      <point x="269" y="648" type="line"/>
      <point x="269" y="710" type="line"/>
      <point x="55" y="710" type="line"/>
      <point x="55" y="0" type="line"/>
      <point x="269" y="0" type="line"/>
    </contour>
    <contour>
      <point x="122" y="792" type="line"/>
      <point x="156" y="768" type="line"/>
      <point x="252" y="852" type="line"/>
      <point x="206" y="900" type="line"/>
    </contour>
  </outline>
</glyph>
<glyph name="edieresis" format="1">
  <advance width="330"/>
  <unicode hex="00EB"/>
  <outline>
    <contour>
      <point x="269" y="83" type="line"/>
      <point x="127" y="75" type="line"/>
      <point x="127" y="362" type="line"/>
      <point x="269" y="356" type="line"/>
      <point x="269" y="404" type="line"/>
      <point x="144" y="427" type="line"/>
      <point x="144" y="654" type="line"/>
      <point x="269" y="648" type="line"/>
      <point x="269" y="710" type="line"/>
      <point x="55" y="710" type="line"/>
      <point x="55" y="0" type="line"/>
      <point x="269" y="0" type="line"/>
    </contour>
    <contour>
      <point x="50" y="815" type="line"/>
      <point x="129" y="815" type="line"/>
      <point x="133" y="898" type="line"/>
      <point x="50" y="895" type="line"/>
    </contour>
    <contour>
      <point x="203" y="815" type="line"/>
      <point x="279" y="818" type="line"/>
      <point x="279" y="898" type="line"/>
      <point x="200" y="898" type="line"/>
    </contour>
  </outline>
</glyph>
<glyph name="iacute" format="1">
  <advance width="175"/>
  <unicode hex="00ED"/>
  <outline>
    <contour>
      <point x="134" y="0" type="line"/>
      <point x="50" y="0" type="line"/>
      <point x="50" y="710" type="line"/>
      <point x="113" y="710" type="line"/>
    </contour>
    <contour>
      <point x="22" y="792" type="line"/>
      <point x="56" y="768" type="line"/>
      <point x="152" y="852" type="line"/>
      <point x="106" y="900" type="line"/>
    </contour>
  </outline>
</glyph>
<glyph name="icircumflex" format="1">
  <advance width="175"/>
  <unicode hex="00EE"/>
  <outline>
    <contour>
      <point x="113" y="710" type="line"/>
      <point x="50" y="710" type="line"/>
      <point x="50" y="0" type="line"/>
      <point x="134" y="0" type="line"/>
    </contour>
    <contour>
      <point x="-6" y="787" type="line"/>
      <point x="23" y="768" type="line"/>
      <point x="88" y="830" type="line"/>
      <point x="153" y="768" type="line"/>
      <point x="182" y="787" type="line"/>
      <point x="108" y="897" type="line"/>
      <point x="68" y="900" type="line"/>
    </contour>
  </outline>
</glyph>
<glyph name="idieresis" format="1">
  <advance width="175"/>
  <unicode hex="00EF"/>
  <outline>
    <contour>
      <point x="134" y="0" type="line"/>
      <point x="50" y="0" type="line"/>
      <point x="50" y="710" type="line"/>
      <point x="113" y="710" type="line"/>
    </contour>
    <contour>
      <point x="-27" y="815" type="line"/>
      <point x="52" y="815" type="line"/>
      <point x="56" y="898" type="line"/>
      <point x="-27" y="895" type="line"/>
    </contour>
    <contour>
      <point x="126" y="815" type="line"/>
      <point x="202" y="818" type="line"/>
      <point x="202" y="898" type="line"/>
      <point x="123" y="898" type="line"/>
    </contour>
  </outline>
</glyph>
<glyph name="otilde" format="1">
  <advance width="312"/>
  <unicode hex="00F5"/>
  <outline>
    <contour>
      <point x="262" y="662" type="line" smooth="yes"/>
      <point x="262" y="689"/>
      <point x="238" y="710"/>
      <point x="201" y="710" type="curve" smooth="yes"/>
      <point x="120" y="710"/>
      <point x="78" y="702"/>
      <point x="49" y="686" type="curve"/>
      <point x="49" y="56" type="line" smooth="yes"/>
      <point x="49" y="17"/>
      <point x="66" y="0"/>
      <point x="122" y="0" type="curve" smooth="yes"/>
      <point x="255" y="0" type="line"/>
    </contour>
    <contour>
      <point x="119" y="640" type="line"/>
      <point x="128" y="646" type="line"/>
      <point x="190" y="643" type="line"/>
      <point x="196" y="642"/>
      <point x="199" y="640"/>
      <point x="199" y="637" type="curve" smooth="yes"/>
      <point x="193" y="66" type="line"/>
      <point x="184" y="57" type="line"/>
      <point x="113" y="63" type="line"/>
    </contour>
    <contour>
      <point x="99" y="897"/>
      <point x="87" y="892"/>
      <point x="76" y="883" type="curve" smooth="yes"/>
      <point x="50" y="860" type="line"/>
      <point x="53" y="791" type="line"/>
      <point x="121" y="844" type="line"/>
      <point x="165" y="813" type="line" smooth="yes"/>
      <point x="182" y="801"/>
      <point x="195" y="794"/>
      <point x="210" y="794" type="curve" smooth="yes"/>
      <point x="222" y="794"/>
      <point x="241" y="805"/>
      <point x="254" y="817" type="curve" smooth="yes"/>
      <point x="278" y="840" type="line"/>
      <point x="278" y="900" type="line"/>
      <point x="206" y="852" type="line"/>
      <point x="168" y="877" type="line" smooth="yes"/>
      <point x="152" y="888"/>
      <point x="133" y="897"/>
      <point x="114" y="897" type="curve" smooth="yes"/>
    </contour>
  </outline>
</glyph>
<glyph name="divide" format="1">
  <advance width="339"/>
  <unicode hex="00F7"/>
  <outline>
    <contour>
      <point x="10" y="366" type="line"/>
      <point x="13" y="308" type="line"/>
      <point x="328" y="308" type="line"/>
      <point x="328" y="357" type="line"/>
    </contour>
    <contour>
      <point x="131" y="132" type="line"/>
      <point x="223" y="132" type="line"/>
      <point x="227" y="228" type="line"/>
      <point x="131" y="224" type="line"/>
    </contour>
    <contour>
      <point x="131" y="444" type="line"/>
      <point x="227" y="440" type="line"/>
      <point x="223" y="536" type="line"/>
      <point x="131" y="536" type="line"/>
    </contour>
  </outline>
</glyph>
<glyph name="uacute" format="1">
  <advance width="304"/>
  <unicode hex="00FA"/>
  <outline>
    <contour>
      <point x="58" y="700" type="line"/>
      <point x="35" y="-20" type="line"/>
      <point x="265" y="-20" type="line"/>
      <point x="265" y="683" type="line"/>
      <point x="195" y="687" type="line"/>
      <point x="195" y="68" type="line"/>
      <point x="111" y="62" type="line"/>
      <point x="132" y="700" type="line"/>
    </contour>
    <contour>
      <point x="105" y="792" type="line"/>
      <point x="139" y="768" type="line"/>
      <point x="235" y="852" type="line"/>
      <point x="189" y="900" type="line"/>
    </contour>
  </outline>
</glyph>
<glyph name="udieresis" format="1">
  <advance width="304"/>
  <unicode hex="00FC"/>
  <outline>
    <contour>
      <point x="58" y="700" type="line"/>
      <point x="35" y="-20" type="line"/>
      <point x="265" y="-20" type="line"/>
      <point x="265" y="683" type="line"/>
      <point x="195" y="687" type="line"/>
      <point x="195" y="68" type="line"/>
      <point x="111" y="62" type="line"/>
      <point x="132" y="700" type="line"/>
    </contour>
    <contour>
      <point x="37" y="815" type="line"/>
      <point x="116" y="815" type="line"/>
      <point x="120" y="898" type="line"/>
      <point x="37" y="895" type="line"/>
    </contour>
    <contour>
      <point x="190" y="815" type="line"/>
      <point x="266" y="818" type="line"/>
      <point x="266" y="898" type="line"/>
      <point x="187" y="898" type="line"/>
    </contour>
  </outline>
</glyph>
<glyph name="yacute" format="1">
  <advance width="263"/>
  <unicode hex="00FD"/>
  <outline>
    <contour>
      <point x="185" y="0" type="line"/>
      <point x="108" y="0" type="line"/>
      <point x="108" y="374" type="line"/>
      <point x="15" y="700" type="line"/>
      <point x="106" y="700" type="line"/>
      <point x="140" y="413" type="line"/>
      <point x="148" y="415" type="line"/>
      <point x="178" y="710" type="line"/>
      <point x="248" y="710" type="line"/>
      <point x="204" y="431" type="line"/>
      <point x="168" y="369" type="line"/>
    </contour>
    <contour>
      <point x="81" y="792" type="line"/>
      <point x="115" y="768" type="line"/>
      <point x="211" y="852" type="line"/>
      <point x="165" y="900" type="line"/>
    </contour>
  </outline>
</glyph>
<glyph name="thorn" format="1">
  <advance width="292"/>
  <unicode hex="00FE"/>
  <outline>
    <contour>
      <point x="35" y="0" type="line"/>
      <point x="81" y="0" type="line"/>
      <point x="102" y="156" type="line"/>
      <point x="222" y="167" type="line"/>
      <point x="257" y="229" type="line"/>
      <point x="246" y="539" type="line" smooth="yes"/>
      <point x="246" y="554"/>
      <point x="225" y="560"/>
      <point x="210" y="560" type="curve" smooth="yes"/>
      <point x="167" y="560" type="line" smooth="yes"/>
      <point x="154" y="560"/>
      <point x="130" y="557"/>
      <point x="115" y="554" type="curve"/>
      <point x="115" y="710" type="line"/>
      <point x="65" y="710" type="line"/>
    </contour>
    <contour>
      <point x="118" y="508" type="line"/>
      <point x="174" y="515" type="line"/>
      <point x="189" y="500" type="line"/>
      <point x="189" y="231" type="line" smooth="yes"/>
      <point x="189" y="227"/>
      <point x="187" y="225"/>
      <point x="183" y="225" type="curve" smooth="yes"/>
      <point x="118" y="222" type="line"/>
    </contour>
  </outline>
</glyph>
<glyph name="abreve" format="1">
  <advance width="308"/>
  <unicode hex="0103"/>
  <outline>
    <contour>
      <point x="234" y="710" type="line"/>
      <point x="76" y="710" type="line"/>
      <point x="31" y="0" type="line"/>
      <point x="93" y="0" type="line"/>
      <point x="115" y="228" type="line"/>
      <point x="195" y="266" type="line"/>
      <point x="231" y="0" type="line"/>
      <point x="275" y="0" type="line"/>
    </contour>
    <contour>
      <point x="176" y="303" type="line" smooth="yes"/>
      <point x="176" y="299"/>
      <point x="174" y="297"/>
      <point x="170" y="297" type="curve"/>
      <point x="133" y="291" type="line"/>
      <point x="129" y="291"/>
      <point x="127" y="293"/>
      <point x="127" y="296" type="curve" smooth="yes"/>
      <point x="127" y="648" type="line" smooth="yes"/>
      <point x="127" y="653"/>
      <point x="129" y="656"/>
      <point x="133" y="658" type="curve"/>
      <point x="176" y="668" type="line"/>
      <point x="180" y="668"/>
      <point x="182" y="666"/>
      <point x="182" y="662" type="curve" smooth="yes"/>
    </contour>
    <contour>
      <point x="50" y="894" type="line"/>
      <point x="54" y="813" type="line"/>
      <point x="99" y="785" type="line"/>
      <point x="224" y="785" type="line"/>
      <point x="263" y="824" type="line"/>
      <point x="263" y="900" type="line"/>
      <point x="217" y="896" type="line"/>
      <point x="220" y="830" type="line"/>
      <point x="110" y="835" type="line"/>
      <point x="98" y="846" type="line"/>
      <point x="103" y="894" type="line"/>
    </contour>
  </outline>
</glyph>
<glyph name="Cdotaccent" format="1">
  <advance width="334"/>
  <unicode hex="010A"/>
  <outline>
    <contour>
      <point x="232" y="167" type="line"/>
      <point x="212" y="89" type="line"/>
      <point x="212" y="85"/>
      <point x="208" y="83"/>
      <point x="200" y="83" type="curve" smooth="yes"/>
      <point x="141" y="83" type="line" smooth="yes"/>
      <point x="137" y="83"/>
      <point x="132" y="83"/>
      <point x="132" y="86" type="curve" smooth="yes"/>
      <point x="132" y="87"/>
      <point x="133" y="88"/>
      <point x="135" y="89" type="curve"/>
      <point x="115" y="588" type="line"/>
      <point x="113" y="589"/>
      <point x="112" y="593"/>
      <point x="112" y="601" type="curve" smooth="yes"/>
      <point x="112" y="621"/>
      <point x="120" y="651"/>
      <point x="148" y="651" type="curve" smooth="yes"/>
      <point x="190" y="651" type="line" smooth="yes"/>
      <point x="198" y="651"/>
      <point x="202" y="648"/>
      <point x="202" y="642" type="curve" smooth="yes"/>
      <point x="212" y="529" type="line"/>
      <point x="278" y="529" type="line"/>
      <point x="294" y="654" type="line"/>
      <point x="294" y="710" type="line"/>
      <point x="130" y="710" type="line" smooth="yes"/>
      <point x="78" y="710"/>
      <point x="50" y="685"/>
      <point x="50" y="654" type="curve" smooth="yes"/>
      <point x="50" y="62" type="line" smooth="yes"/>
      <point x="50" y="29"/>
      <point x="78" y="0"/>
      <point x="151" y="0" type="curve" smooth="yes"/>
      <point x="294" y="0" type="line"/>
      <point x="294" y="167" type="line"/>
    </contour>
    <contour>
      <point x="144" y="802" type="line"/>
      <point x="233" y="805" type="line"/>
      <point x="233" y="900" type="line"/>
      <point x="140" y="900" type="line"/>
    </contour>
  </outline>
</glyph>
<glyph name="Dcroat" format="1">
  <advance width="312"/>
  <unicode hex="0110"/>
  <outline>
    <contour>
      <point x="-3" y="396" type="line"/>
      <point x="0" y="338" type="line"/>
      <point x="50" y="338" type="line"/>
      <point x="50" y="0" type="line"/>
      <point x="183" y="0" type="line" smooth="yes"/>
      <point x="191" y="0"/>
      <point x="241" y="4"/>
      <point x="244" y="57" type="curve" smooth="yes"/>
      <point x="274" y="600" type="line" smooth="yes"/>
      <point x="274" y="605"/>
      <point x="275" y="613"/>
      <point x="275" y="616" type="curve" smooth="yes"/>
      <point x="275" y="671"/>
      <point x="213" y="710"/>
      <point x="165" y="710" type="curve" smooth="yes"/>
      <point x="50" y="710" type="line"/>
      <point x="50" y="393" type="line"/>
    </contour>
    <contour>
      <point x="177" y="84" type="line" smooth="yes"/>
      <point x="177" y="79"/>
      <point x="174" y="75"/>
      <point x="168" y="71" type="curve"/>
      <point x="131" y="66" type="line"/>
      <point x="122" y="72" type="line"/>
      <point x="122" y="338" type="line"/>
      <point x="157" y="338" type="line"/>
      <point x="157" y="387" type="line"/>
      <point x="122" y="389" type="line"/>
      <point x="122" y="638" type="line" smooth="yes"/>
      <point x="122" y="641"/>
      <point x="128" y="644"/>
      <point x="131" y="644" type="curve" smooth="yes"/>
      <point x="176" y="644" type="line" smooth="yes"/>
      <point x="184" y="644"/>
      <point x="188" y="642"/>
      <point x="188" y="638" type="curve" smooth="yes"/>
    </contour>
  </outline>
</glyph>
<glyph name="ebreve" format="1">
  <advance width="330"/>
  <unicode hex="0115"/>
  <outline>
    <contour>
      <point x="269" y="83" type="line"/>
      <point x="127" y="75" type="line"/>
      <point x="127" y="362" type="line"/>
      <point x="269" y="356" type="line"/>
      <point x="269" y="404" type="line"/>
      <point x="144" y="427" type="line"/>
      <point x="144" y="654" type="line"/>
      <point x="269" y="648" type="line"/>
      <point x="269" y="710" type="line"/>
      <point x="55" y="710" type="line"/>
      <point x="55" y="0" type="line"/>
      <point x="269" y="0" type="line"/>
    </contour>
    <contour>
      <point x="62" y="894" type="line"/>
      <point x="66" y="813" type="line"/>
      <point x="111" y="785" type="line"/>
      <point x="236" y="785" type="line"/>
      <point x="275" y="824" type="line"/>
      <point x="275" y="900" type="line"/>
      <point x="229" y="896" type="line"/>
      <point x="232" y="830" type="line"/>
      <point x="122" y="835" type="line"/>
      <point x="110" y="846" type="line"/>
      <point x="115" y="894" type="line"/>
    </contour>
  </outline>
</glyph>
<glyph name="eogonek" format="1">
  <advance width="330"/>
  <unicode hex="0119"/>
  <outline>
    <contour>
      <point x="269" y="83" type="line"/>
      <point x="127" y="75" type="line"/>
      <point x="127" y="362" type="line"/>
      <point x="269" y="356" type="line"/>
      <point x="269" y="404" type="line"/>
      <point x="144" y="427" type="line"/>
      <point x="144" y="654" type="line"/>
      <point x="269" y="648" type="line"/>
      <point x="269" y="710" type="line"/>
      <point x="55" y="710" type="line"/>
      <point x="55" y="0" type="line"/>
      <point x="126" y="0" type="line"/>
      <point x="78" y="-95" type="line"/>
      <point x="166" y="-209" type="line"/>
      <point x="279" y="-146" type="line"/>
      <point x="263" y="-100" type="line"/>
      <point x="174" y="-145" type="line"/>
      <point x="140" y="-83" type="line"/>
      <point x="166" y="0" type="line"/>
      <point x="269" y="0" type="line"/>
    </contour>
  </outline>
</glyph>
<glyph name="Gcircumflex" format="1">
  <advance width="377"/>
  <unicode hex="011C"/>
  <outline>
    <contour>
      <point x="312" y="369" type="line"/>
      <point x="199" y="356" type="line"/>
      <point x="199" y="300" type="line"/>
      <point x="259" y="298" type="line"/>
      <point x="249" y="104" type="line" smooth="yes"/>
      <point x="249" y="96"/>
      <point x="237" y="92"/>
      <point x="229" y="92" type="curve" smooth="yes"/>
      <point x="156" y="92" type="line" smooth="yes"/>
      <point x="147" y="92"/>
      <point x="135" y="101"/>
      <point x="135" y="110" type="curve" smooth="yes"/>
      <point x="117" y="606" type="line"/>
      <point x="118" y="634"/>
      <point x="130" y="651"/>
      <point x="159" y="651" type="curve" smooth="yes"/>
      <point x="226" y="651" type="line"/>
      <point x="256" y="561" type="line"/>
      <point x="299" y="561" type="line"/>
      <point x="299" y="710" type="line"/>
      <point x="86" y="710" type="line"/>
      <point x="50" y="656" type="line"/>
      <point x="50" y="97" type="line" smooth="yes"/>
      <point x="50" y="45"/>
      <point x="75" y="20"/>
      <point x="102" y="20" type="curve" smooth="yes"/>
      <point x="312" y="20" type="line"/>
    </contour>
    <contour>
      <point x="95" y="787" type="line"/>
      <point x="124" y="768" type="line"/>
      <point x="189" y="830" type="line"/>
      <point x="254" y="768" type="line"/>
      <point x="283" y="787" type="line"/>
      <point x="209" y="897" type="line"/>
      <point x="169" y="900" type="line"/>
    </contour>
  </outline>
</glyph>
<glyph name="gcircumflex" format="1">
  <advance width="356"/>
  <unicode hex="011D"/>
  <outline>
    <contour>
      <point x="321" y="333" type="line"/>
      <point x="219" y="343" type="line"/>
      <point x="219" y="106" type="line" smooth="yes"/>
      <point x="219" y="98"/>
      <point x="207" y="94"/>
      <point x="199" y="94" type="curve" smooth="yes"/>
      <point x="153" y="94" type="line" smooth="yes"/>
      <point x="144" y="94"/>
      <point x="132" y="103"/>
      <point x="132" y="112" type="curve" smooth="yes"/>
      <point x="115" y="630" type="line"/>
      <point x="227" y="655" type="line"/>
      <point x="227" y="559" type="line"/>
      <point x="271" y="559" type="line"/>
      <point x="289" y="668" type="line"/>
      <point x="289" y="710" type="line"/>
      <point x="89" y="710" type="line" smooth="yes"/>
      <point x="60" y="710"/>
      <point x="41" y="687"/>
      <point x="40" y="656" type="curve"/>
      <point x="62" y="0" type="line"/>
      <point x="212" y="0" type="line" smooth="yes"/>
      <point x="247" y="0"/>
      <point x="282" y="22"/>
      <point x="282" y="58" type="curve" smooth="yes"/>
      <point x="282" y="277" type="line"/>
      <point x="321" y="294" type="line"/>
    </contour>
    <contour>
      <point x="84" y="787" type="line"/>
      <point x="113" y="768" type="line"/>
      <point x="178" y="830" type="line"/>
      <point x="243" y="768" type="line"/>
      <point x="272" y="787" type="line"/>
      <point x="198" y="897" type="line"/>
      <point x="158" y="900" type="line"/>
    </contour>
  </outline>
</glyph>
<glyph name="gbreve" format="1">
  <advance width="356"/>
  <unicode hex="011F"/>
  <outline>
    <contour>
      <point x="321" y="333" type="line"/>
      <point x="219" y="343" type="line"/>
      <point x="219" y="106" type="line" smooth="yes"/>
      <point x="219" y="98"/>
      <point x="207" y="94"/>
      <point x="199" y="94" type="curve" smooth="yes"/>
      <point x="153" y="94" type="line" smooth="yes"/>
      <point x="144" y="94"/>
      <point x="132" y="103"/>
      <point x="132" y="112" type="curve" smooth="yes"/>
      <point x="115" y="630" type="line"/>
      <point x="227" y="655" type="line"/>
      <point x="227" y="559" type="line"/>
      <point x="271" y="559" type="line"/>
      <point x="289" y="668" type="line"/>
      <point x="289" y="710" type="line"/>
      <point x="89" y="710" type="line" smooth="yes"/>
      <point x="60" y="710"/>
      <point x="41" y="687"/>
      <point x="40" y="656" type="curve"/>
      <point x="62" y="0" type="line"/>
      <point x="212" y="0" type="line" smooth="yes"/>
      <point x="247" y="0"/>
      <point x="282" y="22"/>
      <point x="282" y="58" type="curve" smooth="yes"/>
      <point x="282" y="277" type="line"/>
      <point x="321" y="294" type="line"/>
    </contour>
    <contour>
      <point x="76" y="894" type="line"/>
      <point x="80" y="813" type="line"/>
      <point x="125" y="785" type="line"/>
      <point x="250" y="785" type="line"/>
      <point x="289" y="824" type="line"/>
      <point x="289" y="900" type="line"/>
      <point x="243" y="896" type="line"/>
      <point x="246" y="830" type="line"/>
      <point x="136" y="835" type="line"/>
      <point x="124" y="846" type="line"/>
      <point x="129" y="894" type="line"/>
    </contour>
  </outline>
</glyph>
<glyph name="gdotaccent" format="1">
  <advance width="356"/>
  <unicode hex="0121"/>
  <outline>
    <contour>
      <point x="321" y="333" type="line"/>
      <point x="219" y="343" type="line"/>
      <point x="219" y="106" type="line" smooth="yes"/>
      <point x="219" y="98"/>
      <point x="207" y="94"/>
      <point x="199" y="94" type="curve" smooth="yes"/>
      <point x="153" y="94" type="line" smooth="yes"/>
      <point x="144" y="94"/>
      <point x="132" y="103"/>
      <point x="132" y="112" type="curve" smooth="yes"/>
      <point x="115" y="630" type="line"/>
      <point x="227" y="655" type="line"/>
      <point x="227" y="559" type="line"/>
      <point x="271" y="559" type="line"/>
      <point x="289" y="668" type="line"/>
      <point x="289" y="710" type="line"/>
      <point x="89" y="710" type="line" smooth="yes"/>
      <point x="60" y="710"/>
      <point x="41" y="687"/>
      <point x="40" y="656" type="curve"/>
      <point x="62" y="0" type="line"/>
      <point x="212" y="0" type="line" smooth="yes"/>
      <point x="247" y="0"/>
      <point x="282" y="22"/>
      <point x="282" y="58" type="curve" smooth="yes"/>
      <point x="282" y="277" type="line"/>
      <point x="321" y="294" type="line"/>
    </contour>
    <contour>
      <point x="142" y="802" type="line"/>
      <point x="231" y="805" type="line"/>
      <point x="231" y="900" type="line"/>
      <point x="138" y="900" type="line"/>
    </contour>
  </outline>
</glyph>
<glyph name="gcommaaccent" format="1">
  <advance width="356"/>
  <unicode hex="0123"/>
  <outline>
    <contour>
      <point x="321" y="333" type="line"/>
      <point x="219" y="343" type="line"/>
      <point x="219" y="106" type="line" smooth="yes"/>
      <point x="219" y="98"/>
      <point x="207" y="94"/>
      <point x="199" y="94" type="curve" smooth="yes"/>
      <point x="153" y="94" type="line" smooth="yes"/>
      <point x="144" y="94"/>
      <point x="132" y="103"/>
      <point x="132" y="112" type="curve" smooth="yes"/>
      <point x="115" y="610" type="line"/>
      <point x="227" y="635" type="line"/>
      <point x="227" y="539" type="line"/>
      <point x="271" y="539" type="line"/>
      <point x="289" y="648" type="line"/>
      <point x="289" y="690" type="line"/>
      <point x="89" y="690" type="line" smooth="yes"/>
      <point x="60" y="690"/>
      <point x="41" y="667"/>
      <point x="40" y="636" type="curve"/>
      <point x="62" y="0" type="line"/>
      <point x="212" y="0" type="line" smooth="yes"/>
      <point x="247" y="0"/>
      <point x="282" y="22"/>
      <point x="282" y="58" type="curve" smooth="yes"/>
      <point x="282" y="277" type="line"/>
      <point x="321" y="294" type="line"/>
    </contour>
    <contour>
      <point x="148" y="-160" type="line"/>
      <point x="190" y="-160" type="line"/>
      <point x="144" y="-234" type="line"/>
      <point x="199" y="-250" type="line"/>
      <point x="232" y="-160" type="line"/>
      <point x="229" y="-78" type="line"/>
      <point x="148" y="-78" type="line"/>
    </contour>
  </outline>
</glyph>
<glyph name="Hbar" format="1">
  <advance width="325"/>
  <unicode hex="0126"/>
  <outline>
    <contour>
      <point x="225" y="-20" type="line"/>
      <point x="290" y="-20" type="line"/>
      <point x="272" y="522" type="line"/>
      <point x="325" y="524" type="line"/>
      <point x="325" y="570" type="line"/>
      <point x="271" y="570" type="line"/>
      <point x="269" y="624" type="line"/>
      <point x="284" y="648" type="line"/>
      <point x="284" y="690" type="line"/>
      <point x="197" y="690" type="line"/>
      <point x="197" y="570" type="line"/>
      <point x="123" y="570" type="line"/>
      <point x="123" y="710" type="line"/>
      <point x="42" y="710" type="line"/>
      <point x="46" y="570" type="line"/>
      <point x="0" y="570" type="line"/>
      <point x="3" y="513" type="line"/>
      <point x="48" y="514" type="line"/>
      <point x="65" y="0" type="line"/>
      <point x="135" y="0" type="line"/>
      <point x="124" y="317" type="line"/>
      <point x="204" y="326" type="line"/>
    </contour>
    <contour>
      <point x="123" y="385" type="line"/>
      <point x="123" y="517" type="line"/>
      <point x="197" y="519" type="line"/>
      <point x="197" y="400" type="line"/>
    </contour>
  </outline>
</glyph>
<glyph name="Itilde" format="1">
  <advance width="178"/>
  <unicode hex="0128"/>
  <outline>
    <contour>
      <point x="133" y="710" type="line"/>
      <point x="32" y="710" type="line"/>
      <point x="32" y="664" type="line"/>
      <point x="50" y="616" type="line"/>
      <point x="50" y="0" type="line"/>
      <point x="124" y="0" type="line"/>
    </contour>
    <contour>
      <point x="24" y="897"/>
      <point x="12" y="892"/>
      <point x="1" y="883" type="curve" smooth="yes"/>
      <point x="-25" y="860" type="line"/>
      <point x="-22" y="791" type="line"/>
      <point x="46" y="844" type="line"/>
      <point x="90" y="813" type="line" smooth="yes"/>
      <point x="107" y="801"/>
      <point x="120" y="794"/>
      <point x="135" y="794" type="curve" smooth="yes"/>
      <point x="147" y="794"/>
      <point x="166" y="805"/>
      <point x="179" y="817" type="curve" smooth="yes"/>
      <point x="203" y="840" type="line"/>
      <point x="203" y="900" type="line"/>
      <point x="131" y="852" type="line"/>
      <point x="93" y="877" type="line" smooth="yes"/>
      <point x="77" y="888"/>
      <point x="58" y="897"/>
      <point x="39" y="897" type="curve" smooth="yes"/>
    </contour>
  </outline>
</glyph>
<glyph name="itilde" format="1">
  <advance width="175"/>
  <unicode hex="0129"/>
  <outline>
    <contour>
      <point x="134" y="0" type="line"/>
      <point x="50" y="0" type="line"/>
      <point x="50" y="710" type="line"/>
      <point x="113" y="710" type="line"/>
    </contour>
    <contour>
      <point x="23" y="897"/>
      <point x="11" y="892"/>
      <point x="0" y="883" type="curve" smooth="yes"/>
      <point x="-26" y="860" type="line"/>
      <point x="-23" y="791" type="line"/>
      <point x="45" y="844" type="line"/>
      <point x="89" y="813" type="line" smooth="yes"/>
      <point x="106" y="801"/>
      <point x="119" y="794"/>
      <point x="134" y="794" type="curve" smooth="yes"/>
      <point x="146" y="794"/>
      <point x="165" y="805"/>
      <point x="178" y="817" type="curve" smooth="yes"/>
      <point x="202" y="840" type="line"/>
      <point x="202" y="900" type="line"/>
      <point x="130" y="852" type="line"/>
      <point x="92" y="877" type="line" smooth="yes"/>
      <point x="76" y="888"/>
      <point x="57" y="897"/>
      <point x="38" y="897" type="curve" smooth="yes"/>
    </contour>
  </outline>
</glyph>
<glyph name="imacron" format="1">
  <advance width="175"/>
  <unicode hex="012B"/>
  <outline>
    <contour>
      <point x="134" y="0" type="line"/>
      <point x="50" y="0" type="line"/>
      <point x="50" y="710" type="line"/>
      <point x="113" y="710" type="line"/>
    </contour>
    <contour>
      <point x="-46" y="891" type="line"/>
      <point x="-43" y="827" type="line"/>
      <point x="222" y="836" type="line"/>
      <point x="222" y="891" type="line"/>
    </contour>
  </outline>
</glyph>
<glyph name="ibreve" format="1">
  <advance width="175"/>
  <unicode hex="012D"/>
  <outline>
    <contour>
      <point x="134" y="0" type="line"/>
      <point x="50" y="0" type="line"/>
      <point x="50" y="710" type="line"/>
      <point x="113" y="710" type="line"/>
    </contour>
    <contour>
      <point x="-19" y="894" type="line"/>
      <point x="-15" y="813" type="line"/>
      <point x="30" y="785" type="line"/>
      <point x="155" y="785" type="line"/>
      <point x="194" y="824" type="line"/>
      <point x="194" y="900" type="line"/>
      <point x="148" y="896" type="line"/>
      <point x="151" y="830" type="line"/>
      <point x="41" y="835" type="line"/>
      <point x="29" y="846" type="line"/>
      <point x="34" y="894" type="line"/>
    </contour>
  </outline>
</glyph>
<glyph name="Iogonek" format="1">
  <advance width="178"/>
  <unicode hex="012E"/>
  <outline>
    <contour>
      <point x="133" y="710" type="line"/>
      <point x="32" y="710" type="line"/>
      <point x="32" y="664" type="line"/>
      <point x="50" y="616" type="line"/>
      <point x="50" y="0" type="line"/>
      <point x="83" y="0" type="line"/>
      <point x="35" y="-95" type="line"/>
      <point x="123" y="-209" type="line"/>
      <point x="236" y="-146" type="line"/>
      <point x="220" y="-100" type="line"/>
      <point x="131" y="-145" type="line"/>
      <point x="97" y="-83" type="line"/>
      <point x="123" y="0" type="line"/>
      <point x="124" y="0" type="line"/>
    </contour>
  </outline>
</glyph>
<glyph name="iogonek" format="1">
  <advance width="175"/>
  <unicode hex="012F"/>
  <outline>
    <contour>
      <point x="113" y="710" type="line"/>
      <point x="50" y="710" type="line"/>
      <point x="50" y="20" type="line"/>
      <point x="103" y="20" type="line"/>
      <point x="45" y="-95" type="line"/>
      <point x="133" y="-209" type="line"/>
      <point x="246" y="-146" type="line"/>
      <point x="230" y="-100" type="line"/>
      <point x="141" y="-145" type="line"/>
      <point x="107" y="-83" type="line"/>
      <point x="133" y="0" type="line"/>
      <point x="133" y="20" type="line"/>
      <point x="134" y="20" type="line"/>
    </contour>
  </outline>
</glyph>
<glyph name="Idotaccent" format="1">
  <advance width="178"/>
  <unicode hex="0130"/>
  <outline>
    <contour>
      <point x="133" y="710" type="line"/>
      <point x="32" y="710" type="line"/>
      <point x="32" y="664" type="line"/>
      <point x="50" y="616" type="line"/>
      <point x="50" y="0" type="line"/>
      <point x="124" y="0" type="line"/>
    </contour>
    <contour>
      <point x="49" y="802" type="line"/>
      <point x="138" y="805" type="line"/>
      <point x="138" y="900" type="line"/>
      <point x="45" y="900" type="line"/>
    </contour>
  </outline>
</glyph>
<glyph name="dotlessi" format="1">
  <advance width="175"/>
  <unicode hex="0131"/>
  <outline>
    <contour>
      <point x="113" y="710" type="line"/>
      <point x="50" y="710" type="line"/>
      <point x="50" y="0" type="line"/>
      <point x="134" y="0" type="line"/>
    </contour>
    <contour>
      <point x="157" y="10" type="move" name="ogonek"/>
    </contour>
    <contour>
      <point x="88" y="492" type="move" name="top"/>
    </contour>
  </outline>
</glyph>
<glyph name="IJ" format="1">
  <advance width="454"/>
  <unicode hex="0132"/>
  <outline>
    <contour>
      <point x="133" y="710" type="line"/>
      <point x="32" y="710" type="line"/>
      <point x="32" y="664" type="line"/>
      <point x="50" y="616" type="line"/>
      <point x="50" y="0" type="line"/>
      <point x="124" y="0" type="line"/>
    </contour>
    <contour>
      <point x="400" y="0" type="line"/>
      <point x="219" y="0" type="line"/>
      <point x="183" y="172" type="line"/>
      <point x="262" y="192" type="line"/>
      <point x="267" y="54" type="line"/>
      <point x="331" y="49" type="line"/>
      <point x="331" y="616" type="line"/>
      <point x="313" y="664" type="line"/>
      <point x="313" y="710" type="line"/>
      <point x="409" y="710" type="line"/>
    </contour>
  </outline>
</glyph>
<glyph name="ij" format="1">
  <advance width="460"/>
  <unicode hex="0133"/>
  <outline>
    <contour>
      <point x="113" y="710" type="line"/>
      <point x="50" y="710" type="line"/>
      <point x="50" y="20" type="line"/>
      <point x="134" y="20" type="line"/>
    </contour>
    <contour>
      <point x="397" y="0" type="line"/>
      <point x="261" y="0" type="line" smooth="yes"/>
      <point x="242" y="0"/>
      <point x="219" y="19"/>
      <point x="218" y="38" type="curve" smooth="yes"/>
      <point x="210" y="172" type="line"/>
      <point x="259" y="172" type="line"/>
      <point x="264" y="94" type="line"/>
      <point x="339" y="89" type="line"/>
      <point x="339" y="696" type="line"/>
      <point x="379" y="710" type="line"/>
      <point x="416" y="710" type="line"/>
    </contour>
  </outline>
</glyph>
<glyph name="kgreenlandic" format="1">
  <advance width="302"/>
  <unicode hex="0138"/>
  <outline>
    <contour>
      <point x="279" y="49" type="line"/>
      <point x="202" y="281" type="line"/>
      <point x="240" y="306" type="line"/>
      <point x="261" y="560" type="line"/>
      <point x="175" y="537" type="line"/>
      <point x="186" y="337" type="line"/>
      <point x="115" y="277" type="line"/>
      <point x="115" y="560" type="line"/>
      <point x="73" y="560" type="line"/>
      <point x="37" y="538" type="line"/>
      <point x="60" y="0" type="line"/>
      <point x="127" y="0" type="line"/>
      <point x="127" y="226" type="line"/>
      <point x="149" y="243" type="line"/>
      <point x="202" y="0" type="line"/>
      <point x="261" y="0" type="line"/>
    </contour>
  </outline>
</glyph>
<glyph name="Lcommaaccent" format="1">
  <advance width="264"/>
  <unicode hex="013B"/>
  <outline>
    <contour>
      <point x="239" y="64" type="line"/>
      <point x="126" y="82" type="line"/>
      <point x="147" y="710" type="line"/>
      <point x="50" y="710" type="line"/>
      <point x="50" y="0" type="line"/>
      <point x="239" y="0" type="line"/>
    </contour>
    <contour>
      <point x="92" y="-160" type="line"/>
      <point x="134" y="-160" type="line"/>
      <point x="88" y="-234" type="line"/>
      <point x="143" y="-250" type="line"/>
      <point x="176" y="-160" type="line"/>
      <point x="173" y="-78" type="line"/>
      <point x="92" y="-78" type="line"/>
    </contour>
  </outline>
</glyph>
<glyph name="Lcaron" format="1">
  <advance width="264"/>
  <unicode hex="013D"/>
  <outline>
    <contour>
      <point x="239" y="0" type="line"/>
      <point x="50" y="0" type="line"/>
      <point x="50" y="710" type="line"/>
      <point x="147" y="710" type="line"/>
      <point x="126" y="82" type="line"/>
      <point x="239" y="64" type="line"/>
    </contour>
    <contour>
      <point x="219" y="663" type="line"/>
      <point x="168" y="588" type="line"/>
      <point x="211" y="573" type="line"/>
      <point x="279" y="663" type="line"/>
      <point x="273" y="759" type="line"/>
      <point x="187" y="755" type="line"/>
    </contour>
  </outline>
</glyph>
<glyph name="Ldot" format="1">
  <advance width="264"/>
  <unicode hex="013F"/>
  <outline>
    <contour>
      <point x="239" y="64" type="line"/>
      <point x="126" y="82" type="line"/>
      <point x="147" y="710" type="line"/>
      <point x="50" y="710" type="line"/>
      <point x="50" y="0" type="line"/>
      <point x="239" y="0" type="line"/>
    </contour>
    <contour>
      <point x="168" y="324" type="line"/>
      <point x="260" y="324" type="line"/>
      <point x="264" y="420" type="line"/>
      <point x="168" y="416" type="line"/>
    </contour>
  </outline>
</glyph>
<glyph name="ncaron" format="1">
  <advance width="335"/>
  <unicode hex="0148"/>
  <outline>
    <contour>
      <point x="295" y="710" type="line"/>
      <point x="236" y="710" type="line"/>
      <point x="236" y="131" type="line"/>
      <point x="229" y="131" type="line"/>
      <point x="128" y="710" type="line"/>
      <point x="67" y="710" type="line"/>
      <point x="35" y="-20" type="line"/>
      <point x="86" y="-20" type="line"/>
      <point x="105" y="554" type="line"/>
      <point x="109" y="554" type="line"/>
      <point x="207" y="-20" type="line"/>
      <point x="275" y="-20" type="line"/>
    </contour>
    <contour>
      <point x="261" y="881" type="line"/>
      <point x="232" y="900" type="line"/>
      <point x="167" y="838" type="line"/>
      <point x="102" y="900" type="line"/>
      <point x="73" y="881" type="line"/>
      <point x="147" y="771" type="line"/>
      <point x="187" y="768" type="line"/>
    </contour>
  </outline>
</glyph>
<glyph name="Eng" format="1">
  <advance width="355"/>
  <unicode hex="014A"/>
  <outline>
    <contour>
      <point x="330" y="710" type="line"/>
      <point x="244" y="710" type="line"/>
      <point x="244" y="664" type="line"/>
      <point x="262" y="616" type="line"/>
      <point x="262" y="313" type="line"/>
      <point x="258" y="313" type="line"/>
      <point x="146" y="710" type="line"/>
      <point x="30" y="710" type="line"/>
      <point x="30" y="0" type="line"/>
      <point x="89" y="0" type="line"/>
      <point x="89" y="651" type="line"/>
      <point x="93" y="651" type="line"/>
      <point x="262" y="158" type="line"/>
      <point x="262" y="19" type="line"/>
      <point x="218" y="24" type="line"/>
      <point x="213" y="112" type="line"/>
      <point x="144" y="92" type="line"/>
      <point x="170" y="-30" type="line"/>
      <point x="321" y="-30" type="line"/>
    </contour>
  </outline>
</glyph>
<glyph name="ohungarumlaut" format="1">
  <advance width="312"/>
  <unicode hex="0151"/>
  <outline>
    <contour>
      <point x="262" y="662" type="line" smooth="yes"/>
      <point x="262" y="689"/>
      <point x="238" y="710"/>
      <point x="201" y="710" type="curve" smooth="yes"/>
      <point x="120" y="710"/>
      <point x="78" y="702"/>
      <point x="49" y="686" type="curve"/>
      <point x="49" y="56" type="line" smooth="yes"/>
      <point x="49" y="17"/>
      <point x="66" y="0"/>
      <point x="122" y="0" type="curve" smooth="yes"/>
      <point x="255" y="0" type="line"/>
    </contour>
    <contour>
      <point x="119" y="640" type="line"/>
      <point x="128" y="646" type="line"/>
      <point x="190" y="643" type="line"/>
      <point x="196" y="642"/>
      <point x="199" y="640"/>
      <point x="199" y="637" type="curve" smooth="yes"/>
      <point x="193" y="66" type="line"/>
      <point x="184" y="57" type="line"/>
      <point x="113" y="63" type="line"/>
    </contour>
    <contour>
      <point x="37" y="792" type="line"/>
      <point x="71" y="768" type="line"/>
      <point x="167" y="852" type="line"/>
      <point x="121" y="900" type="line"/>
    </contour>
    <contour>
      <point x="167" y="792" type="line"/>
      <point x="201" y="768" type="line"/>
      <point x="297" y="852" type="line"/>
      <point x="251" y="900" type="line"/>
    </contour>
  </outline>
</glyph>
<glyph name="OE" format="1">
  <advance width="461"/>
  <unicode hex="0152"/>
  <outline>
    <contour>
      <point x="50" y="678" type="line"/>
      <point x="50" y="42" type="line"/>
      <point x="109" y="0" type="line"/>
      <point x="205" y="0" type="line"/>
      <point x="265" y="34" type="line"/>
      <point x="268" y="0" type="line"/>
      <point x="426" y="10" type="line"/>
      <point x="414" y="91" type="line"/>
      <point x="279" y="73" type="line"/>
      <point x="279" y="363" type="line"/>
      <point x="383" y="381" type="line"/>
      <point x="383" y="431" type="line"/>
      <point x="274" y="431" type="line"/>
      <point x="274" y="632" type="line"/>
      <point x="417" y="632" type="line"/>
      <point x="417" y="710" type="line"/>
      <point x="93" y="710" type="line"/>
    </contour>
    <contour>
      <point x="191" y="76" type="line" smooth="yes"/>
      <point x="191" y="72"/>
      <point x="188" y="70"/>
      <point x="182" y="70" type="curve" smooth="yes"/>
      <point x="140" y="70" type="line" smooth="yes"/>
      <point x="134" y="70"/>
      <point x="131" y="72"/>
      <point x="131" y="76" type="curve" smooth="yes"/>
      <point x="131" y="649" type="line" smooth="yes"/>
      <point x="131" y="655"/>
      <point x="134" y="658"/>
      <point x="140" y="658" type="curve" smooth="yes"/>
      <point x="192" y="658" type="line" smooth="yes"/>
      <point x="198" y="658"/>
      <point x="201" y="655"/>
      <point x="201" y="649" type="curve" smooth="yes"/>
    </contour>
    <contour>
      <point x="231" y="710" type="move" name="top"/>
    </contour>
  </outline>
</glyph>
<glyph name="racute" format="1">
  <advance width="319"/>
  <unicode hex="0155"/>
  <outline>
    <contour>
      <point x="50" y="0" type="line"/>
      <point x="96" y="0" type="line"/>
      <point x="117" y="306" type="line"/>
      <point x="168" y="311" type="line"/>
      <point x="219" y="0" type="line"/>
      <point x="278" y="0" type="line"/>
      <point x="297" y="22" type="line"/>
      <point x="217" y="320" type="line"/>
      <point x="262" y="379" type="line"/>
      <point x="252" y="667" type="line" smooth="yes"/>
      <point x="251" y="692"/>
      <point x="236" y="710"/>
      <point x="215" y="710" type="curve" smooth="yes"/>
      <point x="172" y="710" type="line" smooth="yes"/>
      <point x="132" y="710"/>
      <point x="50" y="707"/>
      <point x="50" y="699" type="curve" smooth="yes"/>
    </contour>
    <contour>
      <point x="110" y="648" type="line"/>
      <point x="179" y="655" type="line"/>
      <point x="194" y="640" type="line"/>
      <point x="194" y="391" type="line" smooth="yes"/>
      <point x="194" y="387"/>
      <point x="192" y="385"/>
      <point x="188" y="385" type="curve" smooth="yes"/>
      <point x="113" y="381" type="line"/>
    </contour>
    <contour>
      <point x="104" y="792" type="line"/>
      <point x="138" y="768" type="line"/>
      <point x="234" y="852" type="line"/>
      <point x="188" y="900" type="line"/>
    </contour>
  </outline>
</glyph>
<glyph name="scircumflex" format="1">
  <advance width="289"/>
  <unicode hex="015D"/>
  <outline>
    <contour>
      <point x="244" y="710" type="line"/>
      <point x="87" y="710" type="line"/>
      <point x="47" y="686" type="line"/>
      <point x="47" y="364" type="line"/>
      <point x="182" y="334" type="line"/>
      <point x="166" y="68" type="line"/>
      <point x="96" y="84" type="line"/>
      <point x="97" y="171" type="line"/>
      <point x="38" y="171" type="line"/>
      <point x="47" y="0" type="line"/>
      <point x="164" y="0" type="line" smooth="yes"/>
      <point x="192" y="0"/>
      <point x="238" y="32"/>
      <point x="238" y="60" type="curve"/>
      <point x="252" y="392" type="line"/>
      <point x="107" y="418" type="line"/>
      <point x="122" y="640" type="line"/>
      <point x="182" y="647" type="line"/>
      <point x="202" y="569" type="line"/>
      <point x="239" y="569" type="line"/>
    </contour>
    <contour>
      <point x="64" y="787" type="line"/>
      <point x="93" y="768" type="line"/>
      <point x="158" y="830" type="line"/>
      <point x="223" y="768" type="line"/>
      <point x="252" y="787" type="line"/>
      <point x="178" y="897" type="line"/>
      <point x="138" y="900" type="line"/>
    </contour>
  </outline>
</glyph>
<glyph name="scedilla" format="1">
  <advance width="289"/>
  <unicode hex="015F"/>
  <outline>
    <contour>
      <point x="244" y="710" type="line"/>
      <point x="87" y="710" type="line"/>
      <point x="47" y="686" type="line"/>
      <point x="47" y="364" type="line"/>
      <point x="182" y="334" type="line"/>
      <point x="166" y="68" type="line"/>
      <point x="96" y="84" type="line"/>
      <point x="97" y="171" type="line"/>
      <point x="38" y="171" type="line"/>
      <point x="47" y="0" type="line"/>
      <point x="95" y="0" type="line"/>
      <point x="70" y="-89" type="line"/>
      <point x="175" y="-97" type="line"/>
      <point x="165" y="-150" type="line"/>
      <point x="36" y="-150" type="line"/>
      <point x="36" y="-208" type="line"/>
      <point x="159" y="-208" type="line" smooth="yes"/>
      <point x="188" y="-208"/>
      <point x="223" y="-176"/>
      <point x="223" y="-148" type="curve"/>
      <point x="247" y="-45" type="line"/>
      <point x="135" y="-45" type="line"/>
      <point x="158" y="0" type="line"/>
      <point x="164" y="0" type="line" smooth="yes"/>
      <point x="192" y="0"/>
      <point x="238" y="32"/>
      <point x="238" y="60" type="curve"/>
      <point x="252" y="392" type="line"/>
      <point x="107" y="418" type="line"/>
      <point x="122" y="640" type="line"/>
      <point x="182" y="647" type="line"/>
      <point x="202" y="569" type="line"/>
      <point x="239" y="569" type="line"/>
    </contour>
  </outline>
</glyph>
<glyph name="scaron" format="1">
  <advance width="289"/>
  <unicode hex="0161"/>
  <outline>
    <contour>
      <point x="244" y="710" type="line"/>
      <point x="87" y="710" type="line"/>
      <point x="47" y="686" type="line"/>
      <point x="47" y="364" type="line"/>
      <point x="182" y="334" type="line"/>
      <point x="166" y="68" type="line"/>
      <point x="96" y="84" type="line"/>
      <point x="97" y="171" type="line"/>
      <point x="38" y="171" type="line"/>
      <point x="47" y="0" type="line"/>
      <point x="164" y="0" type="line" smooth="yes"/>
      <point x="192" y="0"/>
      <point x="238" y="32"/>
      <point x="238" y="60" type="curve"/>
      <point x="252" y="392" type="line"/>
      <point x="107" y="418" type="line"/>
      <point x="122" y="640" type="line"/>
      <point x="182" y="647" type="line"/>
      <point x="202" y="569" type="line"/>
      <point x="239" y="569" type="line"/>
    </contour>
    <contour>
      <point x="255" y="881" type="line"/>
      <point x="226" y="900" type="line"/>
      <point x="161" y="838" type="line"/>
      <point x="96" y="900" type="line"/>
      <point x="67" y="881" type="line"/>
      <point x="141" y="771" type="line"/>
      <point x="181" y="768" type="line"/>
    </contour>
  </outline>
</glyph>
<glyph name="Tbar" format="1">
  <advance width="275"/>
  <unicode hex="0166"/>
  <outline>
    <contour>
      <point x="4" y="492" type="line"/>
      <point x="7" y="428" type="line"/>
      <point x="94" y="431" type="line"/>
      <point x="94" y="20" type="line"/>
      <point x="178" y="20" type="line"/>
      <point x="178" y="434" type="line"/>
      <point x="272" y="437" type="line"/>
      <point x="272" y="492" type="line"/>
      <point x="178" y="492" type="line"/>
      <point x="178" y="643" type="line"/>
      <point x="270" y="643" type="line"/>
      <point x="270" y="710" type="line"/>
      <point x="15" y="710" type="line"/>
      <point x="5" y="662" type="line"/>
      <point x="94" y="650" type="line"/>
      <point x="94" y="492" type="line"/>
    </contour>
  </outline>
</glyph>
<glyph name="tbar" format="1">
  <advance width="275"/>
  <unicode hex="0167"/>
  <outline>
    <contour>
      <point x="4" y="492" type="line"/>
      <point x="7" y="428" type="line"/>
      <point x="91" y="431" type="line"/>
      <point x="77" y="0" type="line"/>
      <point x="162" y="0" type="line"/>
      <point x="162" y="433" type="line"/>
      <point x="272" y="437" type="line"/>
      <point x="272" y="492" type="line"/>
      <point x="162" y="492" type="line"/>
      <point x="162" y="633" type="line"/>
      <point x="250" y="633" type="line"/>
      <point x="245" y="696" type="line"/>
      <point x="38" y="710" type="line"/>
      <point x="25" y="639" type="line"/>
      <point x="97" y="615" type="line"/>
      <point x="93" y="492" type="line"/>
    </contour>
  </outline>
</glyph>
<glyph name="utilde" format="1">
  <advance width="304"/>
  <unicode hex="0169"/>
  <outline>
    <contour>
      <point x="58" y="700" type="line"/>
      <point x="35" y="-20" type="line"/>
      <point x="265" y="-20" type="line"/>
      <point x="265" y="683" type="line"/>
      <point x="195" y="687" type="line"/>
      <point x="195" y="68" type="line"/>
      <point x="111" y="62" type="line"/>
      <point x="132" y="700" type="line"/>
    </contour>
    <contour>
      <point x="87" y="897"/>
      <point x="75" y="892"/>
      <point x="64" y="883" type="curve" smooth="yes"/>
      <point x="38" y="860" type="line"/>
      <point x="41" y="791" type="line"/>
      <point x="109" y="844" type="line"/>
      <point x="153" y="813" type="line" smooth="yes"/>
      <point x="170" y="801"/>
      <point x="183" y="794"/>
      <point x="198" y="794" type="curve" smooth="yes"/>
      <point x="210" y="794"/>
      <point x="229" y="805"/>
      <point x="242" y="817" type="curve" smooth="yes"/>
      <point x="266" y="840" type="line"/>
      <point x="266" y="900" type="line"/>
      <point x="194" y="852" type="line"/>
      <point x="156" y="877" type="line" smooth="yes"/>
      <point x="140" y="888"/>
      <point x="121" y="897"/>
      <point x="102" y="897" type="curve" smooth="yes"/>
    </contour>
  </outline>
</glyph>
<glyph name="Ubreve" format="1">
  <advance width="310"/>
  <unicode hex="016C"/>
  <outline>
    <contour>
      <point x="261" y="710" type="line"/>
      <point x="176" y="710" type="line"/>
      <point x="197" y="63" type="line"/>
      <point x="110" y="69" type="line"/>
      <point x="110" y="687" type="line"/>
      <point x="50" y="687" type="line"/>
      <point x="50" y="0" type="line"/>
      <point x="217" y="0" type="line" smooth="yes"/>
      <point x="236" y="0"/>
      <point x="260" y="21"/>
      <point x="260" y="40" type="curve" smooth="yes"/>
    </contour>
    <contour>
      <point x="45" y="894" type="line"/>
      <point x="49" y="813" type="line"/>
      <point x="94" y="785" type="line"/>
      <point x="219" y="785" type="line"/>
      <point x="258" y="824" type="line"/>
      <point x="258" y="900" type="line"/>
      <point x="212" y="896" type="line"/>
      <point x="215" y="830" type="line"/>
      <point x="105" y="835" type="line"/>
      <point x="93" y="846" type="line"/>
      <point x="98" y="894" type="line"/>
    </contour>
  </outline>
</glyph>
<glyph name="ubreve" format="1">
  <advance width="304"/>
  <unicode hex="016D"/>
  <outline>
    <contour>
      <point x="58" y="700" type="line"/>
      <point x="35" y="-20" type="line"/>
      <point x="265" y="-20" type="line"/>
      <point x="265" y="683" type="line"/>
      <point x="195" y="687" type="line"/>
      <point x="195" y="68" type="line"/>
      <point x="111" y="62" type="line"/>
      <point x="132" y="700" type="line"/>
    </contour>
    <contour>
      <point x="58" y="894" type="line"/>
      <point x="62" y="813" type="line"/>
      <point x="107" y="785" type="line"/>
      <point x="232" y="785" type="line"/>
      <point x="271" y="824" type="line"/>
      <point x="271" y="900" type="line"/>
      <point x="225" y="896" type="line"/>
      <point x="228" y="830" type="line"/>
      <point x="118" y="835" type="line"/>
      <point x="106" y="846" type="line"/>
      <point x="111" y="894" type="line"/>
    </contour>
  </outline>
</glyph>
<glyph name="uring" format="1">
  <advance width="304"/>
  <unicode hex="016F"/>
  <outline>
    <contour>
      <point x="58" y="700" type="line"/>
      <point x="35" y="-20" type="line"/>
      <point x="265" y="-20" type="line"/>
      <point x="265" y="683" type="line"/>
      <point x="195" y="687" type="line"/>
      <point x="195" y="68" type="line"/>
      <point x="111" y="62" type="line"/>
      <point x="132" y="700" type="line"/>
    </contour>
    <contour>
      <point x="96" y="900" type="line"/>
      <point x="96" y="765" type="line"/>
      <point x="210" y="765" type="line"/>
      <point x="235" y="791" type="line"/>
      <point x="235" y="900" type="line"/>
    </contour>
    <contour>
      <point x="145" y="800" type="line" smooth="yes"/>
      <point x="141" y="800"/>
      <point x="139" y="801"/>
      <point x="139" y="804" type="curve" smooth="yes"/>
      <point x="139" y="870" type="line" smooth="yes"/>
      <point x="139" y="872"/>
      <point x="142" y="873"/>
      <point x="147" y="873" type="curve"/>
      <point x="187" y="868" type="line"/>
      <point x="191" y="866"/>
      <point x="193" y="864"/>
      <point x="193" y="862" type="curve" smooth="yes"/>
      <point x="193" y="806" type="line" smooth="yes"/>
      <point x="193" y="802"/>
      <point x="191" y="800"/>
      <point x="186" y="800" type="curve" smooth="yes"/>
    </contour>
  </outline>
</glyph>
<glyph name="Uhungarumlaut" format="1">
  <advance width="310"/>
  <unicode hex="0170"/>
  <outline>
    <contour>
      <point x="261" y="710" type="line"/>
      <point x="176" y="710" type="line"/>
      <point x="197" y="63" type="line"/>
      <point x="110" y="69" type="line"/>
      <point x="110" y="687" type="line"/>
      <point x="50" y="687" type="line"/>
      <point x="50" y="0" type="line"/>
      <point x="217" y="0" type="line" smooth="yes"/>
      <point x="236" y="0"/>
      <point x="260" y="21"/>
      <point x="260" y="40" type="curve" smooth="yes"/>
    </contour>
    <contour>
      <point x="40" y="792" type="line"/>
      <point x="74" y="768" type="line"/>
      <point x="170" y="852" type="line"/>
      <point x="124" y="900" type="line"/>
    </contour>
    <contour>
      <point x="170" y="792" type="line"/>
      <point x="204" y="768" type="line"/>
      <point x="300" y="852" type="line"/>
      <point x="254" y="900" type="line"/>
    </contour>
  </outline>
</glyph>
<glyph name="Uogonek" format="1">
  <advance width="310"/>
  <unicode hex="0172"/>
  <outline>
    <contour>
      <point x="261" y="710" type="line"/>
      <point x="176" y="710" type="line"/>
      <point x="197" y="63" type="line"/>
      <point x="110" y="69" type="line"/>
      <point x="110" y="687" type="line"/>
      <point x="50" y="687" type="line"/>
      <point x="50" y="0" type="line"/>
      <point x="142" y="0" type="line"/>
      <point x="94" y="-95" type="line"/>
      <point x="182" y="-209" type="line"/>
      <point x="295" y="-146" type="line"/>
      <point x="279" y="-100" type="line"/>
      <point x="190" y="-145" type="line"/>
      <point x="156" y="-83" type="line"/>
      <point x="182" y="0" type="line"/>
      <point x="217" y="0" type="line" smooth="yes"/>
      <point x="236" y="0"/>
      <point x="260" y="21"/>
      <point x="260" y="40" type="curve" smooth="yes"/>
    </contour>
  </outline>
</glyph>
<glyph name="ycircumflex" format="1">
  <advance width="263"/>
  <unicode hex="0177"/>
  <outline>
    <contour>
      <point x="168" y="369" type="line"/>
      <point x="204" y="431" type="line"/>
      <point x="248" y="710" type="line"/>
      <point x="178" y="710" type="line"/>
      <point x="148" y="415" type="line"/>
      <point x="140" y="413" type="line"/>
      <point x="106" y="700" type="line"/>
      <point x="15" y="700" type="line"/>
      <point x="108" y="374" type="line"/>
      <point x="108" y="0" type="line"/>
      <point x="185" y="0" type="line"/>
    </contour>
    <contour>
      <point x="47" y="787" type="line"/>
      <point x="76" y="768" type="line"/>
      <point x="141" y="830" type="line"/>
      <point x="206" y="768" type="line"/>
      <point x="235" y="787" type="line"/>
      <point x="161" y="897" type="line"/>
      <point x="121" y="900" type="line"/>
    </contour>
  </outline>
</glyph>
<glyph name="Ydieresis" format="1">
  <advance width="247"/>
  <unicode hex="0178"/>
  <outline>
    <contour>
      <point x="164" y="-20" type="line"/>
      <point x="97" y="-20" type="line"/>
      <point x="97" y="353" type="line"/>
      <point x="30" y="472" type="line"/>
      <point x="30" y="710" type="line"/>
      <point x="94" y="710" type="line"/>
      <point x="107" y="431" type="line"/>
      <point x="143" y="428" type="line"/>
      <point x="161" y="710" type="line"/>
      <point x="217" y="710" type="line"/>
      <point x="217" y="451" type="line"/>
      <point x="164" y="389" type="line"/>
    </contour>
    <contour>
      <point x="10" y="815" type="line"/>
      <point x="89" y="815" type="line"/>
      <point x="93" y="898" type="line"/>
      <point x="10" y="895" type="line"/>
    </contour>
    <contour>
      <point x="163" y="815" type="line"/>
      <point x="239" y="818" type="line"/>
      <point x="239" y="898" type="line"/>
      <point x="160" y="898" type="line"/>
    </contour>
  </outline>
</glyph>
<glyph name="Zacute" format="1">
  <advance width="302"/>
  <unicode hex="0179"/>
  <outline>
    <contour>
      <point x="48" y="0" type="line"/>
      <point x="30" y="22" type="line"/>
      <point x="64" y="88" type="line"/>
      <point x="182" y="638" type="line"/>
      <point x="46" y="670" type="line"/>
      <point x="46" y="710" type="line"/>
      <point x="241" y="710" type="line"/>
      <point x="272" y="679" type="line"/>
      <point x="130" y="84" type="line"/>
      <point x="264" y="65" type="line"/>
      <point x="272" y="0" type="line"/>
    </contour>
    <contour>
      <point x="105" y="792" type="line"/>
      <point x="139" y="768" type="line"/>
      <point x="235" y="852" type="line"/>
      <point x="189" y="900" type="line"/>
    </contour>
  </outline>
</glyph>
<glyph name="zcaron" format="1">
  <advance width="292"/>
  <unicode hex="017E"/>
  <outline>
    <contour>
      <point x="267" y="0" type="line"/>
      <point x="267" y="47" type="line"/>
      <point x="133" y="56" type="line"/>
      <point x="247" y="710" type="line"/>
      <point x="41" y="710" type="line"/>
      <point x="41" y="646" type="line"/>
      <point x="169" y="662" type="line"/>
      <point x="25" y="33" type="line"/>
      <point x="43" y="0" type="line"/>
    </contour>
    <contour>
      <point x="251" y="881" type="line"/>
      <point x="222" y="900" type="line"/>
      <point x="157" y="838" type="line"/>
      <point x="92" y="900" type="line"/>
      <point x="63" y="881" type="line"/>
      <point x="137" y="771" type="line"/>
      <point x="177" y="768" type="line"/>
    </contour>
  </outline>
</glyph>
<glyph name="uni018F" format="1">
  <advance width="356"/>
  <unicode hex="018F"/>
  <outline>
    <contour>
      <point x="50" y="20" type="line"/>
      <point x="260" y="20" type="line" smooth="yes"/>
      <point x="287" y="20"/>
      <point x="312" y="45"/>
      <point x="312" y="97" type="curve" smooth="yes"/>
      <point x="312" y="656" type="line"/>
      <point x="276" y="710" type="line"/>
      <point x="63" y="710" type="line"/>
      <point x="69" y="651" type="line"/>
      <point x="203" y="651" type="line" smooth="yes"/>
      <point x="232" y="651"/>
      <point x="244" y="634"/>
      <point x="245" y="606" type="curve"/>
      <point x="236" y="362" type="line"/>
      <point x="50" y="374" type="line"/>
    </contour>
    <contour>
      <point x="133" y="92" type="line" smooth="yes"/>
      <point x="125" y="92"/>
      <point x="113" y="96"/>
      <point x="113" y="104" type="curve" smooth="yes"/>
      <point x="103" y="300" type="line"/>
      <point x="234" y="300" type="line"/>
      <point x="227" y="110" type="line" smooth="yes"/>
      <point x="227" y="101"/>
      <point x="215" y="92"/>
      <point x="206" y="92" type="curve"/>
    </contour>
  </outline>
</glyph>
<glyph name="florin" format="1">
  <advance width="311"/>
  <unicode hex="0192"/>
  <outline>
    <contour>
      <point x="139" y="372" type="line"/>
      <point x="272" y="389" type="line"/>
      <point x="277" y="447" type="line"/>
      <point x="162" y="447" type="line"/>
      <point x="175" y="616" type="line"/>
      <point x="291" y="628" type="line"/>
      <point x="296" y="690" type="line"/>
      <point x="160" y="705" type="line"/>
      <point x="100" y="654" type="line"/>
      <point x="83" y="451" type="line"/>
      <point x="31" y="448" type="line"/>
      <point x="31" y="398" type="line"/>
      <point x="78" y="385" type="line"/>
      <point x="45" y="-20" type="line"/>
      <point x="-61" y="-32" type="line"/>
      <point x="-66" y="-74" type="line"/>
      <point x="65" y="-87" type="line"/>
      <point x="119" y="-39" type="line"/>
    </contour>
  </outline>
</glyph>
<glyph name="uni01C7" format="1">
  <advance width="565"/>
  <unicode hex="01C7"/>
  <outline>
    <contour>
      <point x="239" y="64" type="line"/>
      <point x="126" y="82" type="line"/>
      <point x="147" y="710" type="line"/>
      <point x="50" y="710" type="line"/>
      <point x="50" y="0" type="line"/>
      <point x="239" y="0" type="line"/>
    </contour>
    <contour>
      <point x="515" y="710" type="line"/>
      <point x="419" y="710" type="line"/>
      <point x="419" y="664" type="line"/>
      <point x="437" y="616" type="line"/>
      <point x="437" y="49" type="line"/>
      <point x="373" y="54" type="line"/>
      <point x="368" y="192" type="line"/>
      <point x="289" y="172" type="line"/>
      <point x="325" y="0" type="line"/>
      <point x="506" y="0" type="line"/>
    </contour>
  </outline>
</glyph>
<glyph name="uni01C9" format="1">
  <advance width="572"/>
  <unicode hex="01C9"/>
  <outline>
    <contour>
      <point x="252" y="69" type="line"/>
      <point x="139" y="82" type="line"/>
      <point x="124" y="105" type="line"/>
      <point x="124" y="710" type="line"/>
      <point x="50" y="710" type="line"/>
      <point x="50" y="0" type="line"/>
      <point x="252" y="0" type="line"/>
    </contour>
    <contour>
      <point x="528" y="710" type="line"/>
      <point x="491" y="710" type="line"/>
      <point x="451" y="696" type="line"/>
      <point x="451" y="89" type="line"/>
      <point x="376" y="94" type="line"/>
      <point x="371" y="172" type="line"/>
      <point x="322" y="172" type="line"/>
      <point x="330" y="38" type="line" smooth="yes"/>
      <point x="331" y="19"/>
      <point x="354" y="0"/>
      <point x="373" y="0" type="curve" smooth="yes"/>
      <point x="509" y="0" type="line"/>
    </contour>
  </outline>
</glyph>
<glyph name="uni01CA" format="1">
  <advance width="645"/>
  <unicode hex="01CA"/>
  <outline>
    <contour>
      <point x="320" y="710" type="line"/>
      <point x="262" y="710" type="line"/>
      <point x="240" y="58" type="line"/>
      <point x="236" y="58" type="line"/>
      <point x="146" y="710" type="line"/>
      <point x="30" y="710" type="line"/>
      <point x="30" y="0" type="line"/>
      <point x="89" y="0" type="line"/>
      <point x="89" y="651" type="line"/>
      <point x="93" y="651" type="line"/>
      <point x="195" y="0" type="line"/>
      <point x="310" y="0" type="line"/>
    </contour>
    <contour>
      <point x="595" y="710" type="line"/>
      <point x="499" y="710" type="line"/>
      <point x="499" y="664" type="line"/>
      <point x="517" y="616" type="line"/>
      <point x="517" y="49" type="line"/>
      <point x="453" y="54" type="line"/>
      <point x="448" y="192" type="line"/>
      <point x="369" y="172" type="line"/>
      <point x="405" y="0" type="line"/>
      <point x="586" y="0" type="line"/>
    </contour>
  </outline>
</glyph>
<glyph name="uni01CC" format="1">
  <advance width="620"/>
  <unicode hex="01CC"/>
  <outline>
    <contour>
      <point x="295" y="710" type="line"/>
      <point x="236" y="710" type="line"/>
      <point x="236" y="131" type="line"/>
      <point x="229" y="131" type="line"/>
      <point x="128" y="710" type="line"/>
      <point x="67" y="710" type="line"/>
      <point x="35" y="-20" type="line"/>
      <point x="86" y="-20" type="line"/>
      <point x="105" y="554" type="line"/>
      <point x="109" y="554" type="line"/>
      <point x="207" y="-20" type="line"/>
      <point x="275" y="-20" type="line"/>
    </contour>
    <contour>
      <point x="576" y="710" type="line"/>
      <point x="539" y="710" type="line"/>
      <point x="499" y="696" type="line"/>
      <point x="499" y="89" type="line"/>
      <point x="424" y="94" type="line"/>
      <point x="419" y="172" type="line"/>
      <point x="370" y="172" type="line"/>
      <point x="378" y="38" type="line" smooth="yes"/>
      <point x="379" y="19"/>
      <point x="402" y="0"/>
      <point x="421" y="0" type="curve" smooth="yes"/>
      <point x="557" y="0" type="line"/>
    </contour>
  </outline>
</glyph>
<glyph name="AEacute" format="1">
  <advance width="472"/>
  <unicode hex="01FC"/>
  <outline>
    <contour>
      <point x="423" y="710" type="line"/>
      <point x="71" y="710" type="line"/>
      <point x="26" y="0" type="line"/>
      <point x="73" y="0" type="line"/>
      <point x="119" y="278" type="line"/>
      <point x="190" y="278" type="line"/>
      <point x="216" y="0" type="line"/>
      <point x="432" y="0" type="line"/>
      <point x="420" y="101" type="line"/>
      <point x="285" y="83" type="line"/>
      <point x="285" y="393" type="line"/>
      <point x="389" y="411" type="line"/>
      <point x="389" y="461" type="line"/>
      <point x="280" y="461" type="line"/>
      <point x="280" y="632" type="line"/>
      <point x="423" y="632" type="line"/>
    </contour>
    <contour>
      <point x="191" y="331" type="line" smooth="yes"/>
      <point x="191" y="327"/>
      <point x="189" y="325"/>
      <point x="185" y="325" type="curve" smooth="yes"/>
      <point x="142" y="325" type="line" smooth="yes"/>
      <point x="138" y="325"/>
      <point x="136" y="327"/>
      <point x="136" y="330" type="curve" smooth="yes"/>
      <point x="136" y="672" type="line" smooth="yes"/>
      <point x="136" y="676"/>
      <point x="138" y="678"/>
      <point x="142" y="678" type="curve" smooth="yes"/>
      <point x="185" y="678" type="line" smooth="yes"/>
      <point x="189" y="678"/>
      <point x="191" y="676"/>
      <point x="191" y="672" type="curve" smooth="yes"/>
    </contour>
    <contour>
      <point x="188" y="792" type="line"/>
      <point x="222" y="768" type="line"/>
      <point x="318" y="852" type="line"/>
      <point x="272" y="900" type="line"/>
    </contour>
  </outline>
</glyph>
<glyph name="Oslashacute" format="1">
  <advance width="318"/>
  <unicode hex="01FE"/>
  <outline>
    <contour>
      <point x="50" y="710" type="line"/>
      <point x="50" y="31" type="line"/>
      <point x="22" y="-71" type="line"/>
      <point x="66" y="-88" type="line"/>
      <point x="89" y="0" type="line"/>
      <point x="268" y="0" type="line"/>
      <point x="268" y="673" type="line"/>
      <point x="295" y="775" type="line"/>
      <point x="258" y="788" type="line"/>
      <point x="235" y="706" type="line"/>
      <point x="225" y="709"/>
      <point x="208" y="710"/>
      <point x="184" y="710" type="curve" smooth="yes"/>
    </contour>
    <contour>
      <point x="111" y="649" type="line" smooth="yes"/>
      <point x="111" y="655"/>
      <point x="114" y="658"/>
      <point x="120" y="658" type="curve" smooth="yes"/>
      <point x="192" y="658" type="line" smooth="yes"/>
      <point x="198" y="658"/>
      <point x="201" y="655"/>
      <point x="201" y="649" type="curve" smooth="yes"/>
      <point x="199" y="575" type="line"/>
      <point x="111" y="253" type="line"/>
    </contour>
    <contour>
      <point x="191" y="77" type="line" smooth="yes"/>
      <point x="191" y="73"/>
      <point x="188" y="71"/>
      <point x="182" y="71" type="curve" smooth="yes"/>
      <point x="120" y="71" type="line" smooth="yes"/>
      <point x="114" y="71"/>
      <point x="111" y="73"/>
      <point x="111" y="77" type="curve" smooth="yes"/>
      <point x="111" y="81" type="line"/>
      <point x="196" y="404" type="line"/>
    </contour>
    <contour>
      <point x="100" y="792" type="line"/>
      <point x="134" y="768" type="line"/>
      <point x="230" y="852" type="line"/>
      <point x="184" y="900" type="line"/>
    </contour>
  </outline>
</glyph>
<glyph name="scommaaccent" format="1">
  <advance width="289"/>
  <unicode hex="0219"/>
  <outline>
    <contour>
      <point x="244" y="710" type="line"/>
      <point x="87" y="710" type="line"/>
      <point x="47" y="686" type="line"/>
      <point x="47" y="364" type="line"/>
      <point x="182" y="334" type="line"/>
      <point x="166" y="68" type="line"/>
      <point x="96" y="84" type="line"/>
      <point x="97" y="171" type="line"/>
      <point x="38" y="171" type="line"/>
      <point x="47" y="0" type="line"/>
      <point x="164" y="0" type="line" smooth="yes"/>
      <point x="192" y="0"/>
      <point x="238" y="32"/>
      <point x="238" y="60" type="curve"/>
      <point x="252" y="392" type="line"/>
      <point x="107" y="418" type="line"/>
      <point x="122" y="640" type="line"/>
      <point x="182" y="647" type="line"/>
      <point x="202" y="569" type="line"/>
      <point x="239" y="569" type="line"/>
    </contour>
    <contour>
      <point x="96" y="-160" type="line"/>
      <point x="138" y="-160" type="line"/>
      <point x="92" y="-234" type="line"/>
      <point x="147" y="-250" type="line"/>
      <point x="180" y="-160" type="line"/>
      <point x="177" y="-78" type="line"/>
      <point x="96" y="-78" type="line"/>
    </contour>
  </outline>
</glyph>
<glyph name="uni021B" format="1">
  <advance width="275"/>
  <unicode hex="021B"/>
  <outline>
    <contour>
      <point x="38" y="710" type="line"/>
      <point x="25" y="639" type="line"/>
      <point x="97" y="615" type="line"/>
      <point x="77" y="0" type="line"/>
      <point x="162" y="0" type="line"/>
      <point x="162" y="633" type="line"/>
      <point x="250" y="633" type="line"/>
      <point x="245" y="696" type="line"/>
    </contour>
    <contour>
      <point x="97" y="-160" type="line"/>
      <point x="139" y="-160" type="line"/>
      <point x="93" y="-234" type="line"/>
      <point x="148" y="-250" type="line"/>
      <point x="181" y="-160" type="line"/>
      <point x="178" y="-78" type="line"/>
      <point x="97" y="-78" type="line"/>
    </contour>
  </outline>
</glyph>
<glyph name="dotlessj" format="1">
  <advance width="285"/>
  <unicode hex="0237"/>
  <outline>
    <contour>
      <point x="241" y="710" type="line"/>
      <point x="204" y="710" type="line"/>
      <point x="164" y="696" type="line"/>
      <point x="164" y="89" type="line"/>
      <point x="89" y="94" type="line"/>
      <point x="84" y="172" type="line"/>
      <point x="35" y="172" type="line"/>
      <point x="43" y="38" type="line" smooth="yes"/>
      <point x="44" y="19"/>
      <point x="67" y="0"/>
      <point x="86" y="0" type="curve" smooth="yes"/>
      <point x="222" y="0" type="line"/>
    </contour>
    <contour>
      <point x="143" y="492" type="move" name="top"/>
    </contour>
  </outline>
</glyph>
<glyph name="uni0259" format="1">
  <advance width="328"/>
  <unicode hex="0259"/>
  <outline>
    <contour>
      <point x="52" y="387" type="line"/>
      <point x="52" y="58" type="line" smooth="yes"/>
      <point x="52" y="22"/>
      <point x="87" y="0"/>
      <point x="122" y="0" type="curve" smooth="yes"/>
      <point x="272" y="0" type="line"/>
      <point x="294" y="656" type="line"/>
      <point x="293" y="687"/>
      <point x="274" y="710"/>
      <point x="245" y="710" type="curve" smooth="yes"/>
      <point x="45" y="710" type="line"/>
      <point x="45" y="668" type="line"/>
      <point x="219" y="630" type="line"/>
      <point x="211" y="387" type="line"/>
    </contour>
    <contour>
      <point x="135" y="94" type="line" smooth="yes"/>
      <point x="127" y="94"/>
      <point x="115" y="98"/>
      <point x="115" y="106" type="curve" smooth="yes"/>
      <point x="115" y="317" type="line"/>
      <point x="209" y="329" type="line"/>
      <point x="202" y="112" type="line" smooth="yes"/>
      <point x="202" y="103"/>
      <point x="190" y="94"/>
      <point x="181" y="94" type="curve"/>
    </contour>
  </outline>
</glyph>
<glyph name="uni02BC" format="1">
  <advance width="150"/>
  <unicode hex="02BC"/>
  <outline>
    <contour>
      <point x="39" y="628" type="line"/>
      <point x="81" y="628" type="line"/>
      <point x="35" y="554" type="line"/>
      <point x="90" y="538" type="line"/>
      <point x="123" y="628" type="line"/>
      <point x="120" y="710" type="line"/>
      <point x="39" y="710" type="line"/>
    </contour>
  </outline>
</glyph>
<glyph name="circumflex" format="1">
  <advance width="228"/>
  <unicode hex="02C6"/>
  <outline>
    <contour>
      <point x="20" y="787" type="line"/>
      <point x="49" y="768" type="line"/>
      <point x="114" y="830" type="line"/>
      <point x="179" y="768" type="line"/>
      <point x="208" y="787" type="line"/>
      <point x="134" y="897" type="line"/>
      <point x="94" y="900" type="line"/>
    </contour>
    <contour>
      <point x="114" y="492" type="move" name="_top"/>
    </contour>
  </outline>
</glyph>
<glyph name="tildecomb" format="1">
  <advance width="328"/>
  <unicode hex="0303"/>
  <outline>
    <contour>
      <point x="99" y="897"/>
      <point x="87" y="892"/>
      <point x="76" y="883" type="curve" smooth="yes"/>
      <point x="50" y="860" type="line"/>
      <point x="53" y="791" type="line"/>
      <point x="121" y="844" type="line"/>
      <point x="165" y="813" type="line" smooth="yes"/>
      <point x="182" y="801"/>
      <point x="195" y="794"/>
      <point x="210" y="794" type="curve" smooth="yes"/>
      <point x="222" y="794"/>
      <point x="241" y="805"/>
      <point x="254" y="817" type="curve" smooth="yes"/>
      <point x="278" y="840" type="line"/>
      <point x="278" y="900" type="line"/>
      <point x="206" y="852" type="line"/>
      <point x="168" y="877" type="line" smooth="yes"/>
      <point x="152" y="888"/>
      <point x="133" y="897"/>
      <point x="114" y="897" type="curve" smooth="yes"/>
    </contour>
    <contour>
      <point x="164" y="492" type="move" name="_top"/>
    </contour>
  </outline>
</glyph>
<glyph name="uni0307" format="1">
  <advance width="153"/>
  <unicode hex="0307"/>
  <outline>
    <contour>
      <point x="34" y="802" type="line"/>
      <point x="123" y="805" type="line"/>
      <point x="123" y="900" type="line"/>
      <point x="30" y="900" type="line"/>
    </contour>
    <contour>
      <point x="77" y="492" type="move" name="_top"/>
    </contour>
  </outline>
</glyph>
<glyph name="uni030A" format="1">
  <advance width="199"/>
  <unicode hex="030A"/>
  <outline>
    <contour>
      <point x="30" y="900" type="line"/>
      <point x="30" y="765" type="line"/>
      <point x="144" y="765" type="line"/>
      <point x="169" y="791" type="line"/>
      <point x="169" y="900" type="line"/>
    </contour>
    <contour>
      <point x="79" y="800" type="line" smooth="yes"/>
      <point x="75" y="800"/>
      <point x="73" y="801"/>
      <point x="73" y="804" type="curve" smooth="yes"/>
      <point x="73" y="870" type="line" smooth="yes"/>
      <point x="73" y="872"/>
      <point x="76" y="873"/>
      <point x="81" y="873" type="curve"/>
      <point x="121" y="868" type="line"/>
      <point x="125" y="866"/>
      <point x="127" y="864"/>
      <point x="127" y="862" type="curve" smooth="yes"/>
      <point x="127" y="806" type="line" smooth="yes"/>
      <point x="127" y="802"/>
      <point x="125" y="800"/>
      <point x="120" y="800" type="curve" smooth="yes"/>
    </contour>
    <contour>
      <point x="100" y="492" type="move" name="_top"/>
    </contour>
  </outline>
</glyph>
<glyph name="uni030B" format="1">
  <advance width="300"/>
  <unicode hex="030B"/>
  <outline>
    <contour>
      <point x="20" y="792" type="line"/>
      <point x="54" y="768" type="line"/>
      <point x="150" y="852" type="line"/>
      <point x="104" y="900" type="line"/>
    </contour>
    <contour>
      <point x="150" y="792" type="line"/>
      <point x="184" y="768" type="line"/>
      <point x="280" y="852" type="line"/>
      <point x="234" y="900" type="line"/>
    </contour>
    <contour>
      <point x="150" y="492" type="move" name="_top"/>
    </contour>
  </outline>
</glyph>
<glyph name="dotbelowcomb" format="1">
  <advance width="153"/>
  <unicode hex="0323"/>
  <outline>
    <contour>
      <point x="34" y="802" type="line"/>
      <point x="123" y="805" type="line"/>
      <point x="123" y="900" type="line"/>
      <point x="30" y="900" type="line"/>
    </contour>
    <contour>
      <point x="77" y="0" type="move" name="_bottom"/>
    </contour>
  </outline>
</glyph>
<glyph name="uni0326" format="1">
  <advance width="148"/>
  <unicode hex="0326"/>
  <outline>
    <contour>
      <point x="39" y="-160" type="line"/>
      <point x="81" y="-160" type="line"/>
      <point x="35" y="-234" type="line"/>
      <point x="90" y="-250" type="line"/>
      <point x="123" y="-160" type="line"/>
      <point x="120" y="-78" type="line"/>
      <point x="39" y="-78" type="line"/>
    </contour>
    <contour>
      <point x="79" y="0" type="move" name="_bottom"/>
    </contour>
  </outline>
</glyph>
<glyph name="Delta" format="1">
  <advance width="330"/>
  <unicode hex="0394"/>
  <outline>
    <contour>
      <point x="214" y="710" type="line"/>
      <point x="144" y="700" type="line"/>
      <point x="15" y="10" type="line"/>
      <point x="315" y="0" type="line"/>
    </contour>
    <contour>
      <point x="92" y="64" type="line"/>
      <point x="165" y="664" type="line"/>
      <point x="178" y="662" type="line"/>
      <point x="238" y="74" type="line"/>
    </contour>
  </outline>
</glyph>
<glyph name="Omega" format="1">
  <advance width="340"/>
  <unicode hex="03A9"/>
  <outline>
    <contour>
      <point x="64" y="162" type="line"/>
      <point x="93" y="72" type="line"/>
      <point x="92" y="68" type="line"/>
      <point x="5" y="61" type="line"/>
      <point x="2" y="1" type="line"/>
      <point x="131" y="1" type="line"/>
      <point x="150" y="86" type="line"/>
      <point x="123" y="196" type="line"/>
      <point x="123" y="649" type="line" smooth="yes"/>
      <point x="123" y="655"/>
      <point x="126" y="658"/>
      <point x="132" y="658" type="curve" smooth="yes"/>
      <point x="218" y="658" type="line" smooth="yes"/>
      <point x="224" y="658"/>
      <point x="227" y="655"/>
      <point x="227" y="649" type="curve" smooth="yes"/>
      <point x="212" y="196" type="line"/>
      <point x="188" y="72" type="line"/>
      <point x="198" y="6" type="line"/>
      <point x="333" y="1" type="line"/>
      <point x="338" y="78" type="line"/>
      <point x="232" y="62" type="line"/>
      <point x="231" y="66" type="line"/>
      <point x="282" y="156" type="line"/>
      <point x="282" y="662" type="line"/>
      <point x="222" y="710" type="line"/>
      <point x="127" y="710" type="line"/>
      <point x="64" y="658" type="line"/>
    </contour>
    <contour>
      <point x="20" y="710" type="move" name="topleft"/>
    </contour>
  </outline>
</glyph>
<glyph name="pi" format="1">
  <advance width="342"/>
  <unicode hex="03C0"/>
  <outline>
    <contour>
      <point x="11" y="665" type="line"/>
      <point x="14" y="591" type="line"/>
      <point x="56" y="618" type="line"/>
      <point x="82" y="634" type="line"/>
      <point x="61" y="10" type="line"/>
      <point x="140" y="0" type="line"/>
      <point x="140" y="636" type="line"/>
      <point x="156" y="630" type="line"/>
      <point x="213" y="609" type="line"/>
      <point x="213" y="23" type="line"/>
      <point x="267" y="23" type="line"/>
      <point x="267" y="609" type="line"/>
      <point x="329" y="645" type="line"/>
      <point x="329" y="715" type="line"/>
      <point x="274" y="689" type="line" smooth="yes"/>
      <point x="249" y="677"/>
      <point x="234" y="670"/>
      <point x="223" y="670" type="curve" smooth="yes"/>
      <point x="208" y="670"/>
      <point x="193" y="676"/>
      <point x="164" y="688" type="curve" smooth="yes"/>
      <point x="105" y="712" type="line"/>
    </contour>
  </outline>
</glyph>
<glyph name="uni1E25" format="1">
  <advance width="333"/>
  <unicode hex="1E25"/>
  <outline>
    <contour>
      <point x="239" y="0" type="line"/>
      <point x="283" y="0" type="line"/>
      <point x="283" y="710" type="line"/>
      <point x="210" y="710" type="line"/>
      <point x="210" y="400" type="line"/>
      <point x="111" y="395" type="line"/>
      <point x="122" y="710" type="line"/>
      <point x="50" y="710" type="line"/>
      <point x="50" y="0" type="line"/>
      <point x="124" y="0" type="line"/>
      <point x="124" y="327" type="line"/>
      <point x="210" y="310" type="line"/>
    </contour>
    <contour>
      <point x="132" y="-154" type="line"/>
      <point x="221" y="-151" type="line"/>
      <point x="221" y="-56" type="line"/>
      <point x="128" y="-56" type="line"/>
    </contour>
  </outline>
</glyph>
<glyph name="uni1E45" format="1">
  <advance width="335"/>
  <unicode hex="1E45"/>
  <outline>
    <contour>
      <point x="275" y="-20" type="line"/>
      <point x="207" y="-20" type="line"/>
      <point x="109" y="554" type="line"/>
      <point x="105" y="554" type="line"/>
      <point x="86" y="-20" type="line"/>
      <point x="35" y="-20" type="line"/>
      <point x="67" y="710" type="line"/>
      <point x="128" y="710" type="line"/>
      <point x="229" y="131" type="line"/>
      <point x="236" y="131" type="line"/>
      <point x="236" y="710" type="line"/>
      <point x="295" y="710" type="line"/>
    </contour>
    <contour>
      <point x="140" y="802" type="line"/>
      <point x="229" y="805" type="line"/>
      <point x="229" y="900" type="line"/>
      <point x="136" y="900" type="line"/>
    </contour>
  </outline>
</glyph>
<glyph name="uni1E63" format="1">
  <advance width="289"/>
  <unicode hex="1E63"/>
  <outline>
    <contour>
      <point x="244" y="710" type="line"/>
      <point x="87" y="710" type="line"/>
      <point x="47" y="686" type="line"/>
      <point x="47" y="364" type="line"/>
      <point x="182" y="334" type="line"/>
      <point x="166" y="68" type="line"/>
      <point x="96" y="84" type="line"/>
      <point x="97" y="171" type="line"/>
      <point x="38" y="171" type="line"/>
      <point x="47" y="0" type="line"/>
      <point x="164" y="0" type="line" smooth="yes"/>
      <point x="192" y="0"/>
      <point x="238" y="32"/>
      <point x="238" y="60" type="curve"/>
      <point x="252" y="392" type="line"/>
      <point x="107" y="418" type="line"/>
      <point x="122" y="640" type="line"/>
      <point x="182" y="647" type="line"/>
      <point x="202" y="569" type="line"/>
      <point x="239" y="569" type="line"/>
    </contour>
    <contour>
      <point x="96" y="-154" type="line"/>
      <point x="185" y="-151" type="line"/>
      <point x="185" y="-56" type="line"/>
      <point x="92" y="-56" type="line"/>
    </contour>
  </outline>
</glyph>
<glyph name="uni1E6D" format="1">
  <advance width="275"/>
  <unicode hex="1E6D"/>
  <outline>
    <contour>
      <point x="38" y="710" type="line"/>
      <point x="25" y="639" type="line"/>
      <point x="97" y="615" type="line"/>
      <point x="77" y="0" type="line"/>
      <point x="162" y="0" type="line"/>
      <point x="162" y="633" type="line"/>
      <point x="250" y="633" type="line"/>
      <point x="245" y="696" type="line"/>
    </contour>
    <contour>
      <point x="77" y="-154" type="line"/>
      <point x="166" y="-151" type="line"/>
      <point x="166" y="-56" type="line"/>
      <point x="73" y="-56" type="line"/>
    </contour>
  </outline>
</glyph>
<glyph name="Wgrave" format="1">
  <advance width="334"/>
  <unicode hex="1E80"/>
  <outline>
    <contour>
      <point x="257" y="710" type="line"/>
      <point x="257" y="86" type="line"/>
      <point x="252" y="86" type="line"/>
      <point x="185" y="598" type="line"/>
      <point x="142" y="598" type="line"/>
      <point x="85" y="86" type="line"/>
      <point x="81" y="86" type="line"/>
      <point x="81" y="710" type="line"/>
      <point x="8" y="710" type="line"/>
      <point x="47" y="0" type="line"/>
      <point x="102" y="0" type="line"/>
      <point x="163" y="417" type="line"/>
      <point x="167" y="417" type="line"/>
      <point x="228" y="0" type="line"/>
      <point x="291" y="0" type="line"/>
      <point x="327" y="710" type="line"/>
    </contour>
    <contour>
      <point x="136" y="900" type="line"/>
      <point x="90" y="852" type="line"/>
      <point x="186" y="768" type="line"/>
      <point x="220" y="792" type="line"/>
    </contour>
  </outline>
</glyph>
<glyph name="wgrave" format="1">
  <advance width="419"/>
  <unicode hex="1E81"/>
  <outline>
    <contour>
      <point x="379" y="10" type="line"/>
      <point x="412" y="700" type="line"/>
      <point x="351" y="700" type="line"/>
      <point x="329" y="33" type="line"/>
      <point x="324" y="33" type="line"/>
      <point x="241" y="539" type="line"/>
      <point x="247" y="690" type="line"/>
      <point x="175" y="690" type="line"/>
      <point x="126" y="37" type="line"/>
      <point x="122" y="37" type="line"/>
      <point x="71" y="710" type="line"/>
      <point x="6" y="710" type="line"/>
      <point x="75" y="0" type="line"/>
      <point x="180" y="0" type="line"/>
      <point x="203" y="500" type="line"/>
      <point x="207" y="500" type="line"/>
      <point x="283" y="10" type="line"/>
    </contour>
    <contour>
      <point x="184" y="900" type="line"/>
      <point x="138" y="852" type="line"/>
      <point x="234" y="768" type="line"/>
      <point x="268" y="792" type="line"/>
    </contour>
  </outline>
</glyph>
<glyph name="Wdieresis" format="1">
  <advance width="334"/>
  <unicode hex="1E84"/>
  <outline>
    <contour>
      <point x="257" y="710" type="line"/>
      <point x="257" y="86" type="line"/>
      <point x="252" y="86" type="line"/>
      <point x="185" y="598" type="line"/>
      <point x="142" y="598" type="line"/>
      <point x="85" y="86" type="line"/>
      <point x="81" y="86" type="line"/>
      <point x="81" y="710" type="line"/>
      <point x="8" y="710" type="line"/>
      <point x="47" y="0" type="line"/>
      <point x="102" y="0" type="line"/>
      <point x="163" y="417" type="line"/>
      <point x="167" y="417" type="line"/>
      <point x="228" y="0" type="line"/>
      <point x="291" y="0" type="line"/>
      <point x="327" y="710" type="line"/>
    </contour>
    <contour>
      <point x="50" y="815" type="line"/>
      <point x="129" y="815" type="line"/>
      <point x="133" y="898" type="line"/>
      <point x="50" y="895" type="line"/>
    </contour>
    <contour>
      <point x="203" y="815" type="line"/>
      <point x="279" y="818" type="line"/>
      <point x="279" y="898" type="line"/>
      <point x="200" y="898" type="line"/>
    </contour>
  </outline>
</glyph>
<glyph name="uni1E92" format="1">
  <advance width="302"/>
  <unicode hex="1E92"/>
  <outline>
    <contour>
      <point x="272" y="0" type="line"/>
      <point x="264" y="65" type="line"/>
      <point x="130" y="84" type="line"/>
      <point x="272" y="679" type="line"/>
      <point x="241" y="710" type="line"/>
      <point x="46" y="710" type="line"/>
      <point x="46" y="670" type="line"/>
      <point x="182" y="638" type="line"/>
      <point x="64" y="88" type="line"/>
      <point x="30" y="22" type="line"/>
      <point x="48" y="0" type="line"/>
    </contour>
    <contour>
      <point x="114" y="-154" type="line"/>
      <point x="203" y="-151" type="line"/>
      <point x="203" y="-56" type="line"/>
      <point x="110" y="-56" type="line"/>
    </contour>
  </outline>
</glyph>
<glyph name="uni1E93" format="1">
  <advance width="292"/>
  <unicode hex="1E93"/>
  <outline>
    <contour>
      <point x="267" y="0" type="line"/>
      <point x="267" y="47" type="line"/>
      <point x="133" y="56" type="line"/>
      <point x="247" y="710" type="line"/>
      <point x="41" y="710" type="line"/>
      <point x="41" y="646" type="line"/>
      <point x="169" y="662" type="line"/>
      <point x="25" y="33" type="line"/>
      <point x="43" y="0" type="line"/>
    </contour>
    <contour>
      <point x="113" y="-154" type="line"/>
      <point x="202" y="-151" type="line"/>
      <point x="202" y="-56" type="line"/>
      <point x="109" y="-56" type="line"/>
    </contour>
  </outline>
</glyph>
<glyph name="uni1E9E" format="1">
  <advance width="414"/>
  <unicode hex="1E9E"/>
  <outline>
    <contour>
      <point x="229" y="449" type="line"/>
      <point x="228" y="454" type="line"/>
      <point x="331" y="710" type="line"/>
      <point x="146" y="710" type="line"/>
      <point x="55" y="640" type="line"/>
      <point x="55" y="-1" type="line"/>
      <point x="137" y="-1" type="line"/>
      <point x="116" y="616" type="line"/>
      <point x="202" y="650" type="line"/>
      <point x="234" y="628" type="line"/>
      <point x="161" y="459" type="line"/>
      <point x="187" y="396" type="line"/>
      <point x="296" y="276" type="line"/>
      <point x="286" y="78" type="line"/>
      <point x="183" y="64" type="line"/>
      <point x="187" y="0" type="line"/>
      <point x="290" y="0" type="line"/>
      <point x="364" y="80" type="line"/>
      <point x="364" y="345" type="line"/>
    </contour>
  </outline>
</glyph>
<glyph name="uni1EB8" format="1">
  <advance width="316"/>
  <unicode hex="1EB8"/>
  <outline>
    <contour>
      <point x="269" y="121" type="line"/>
      <point x="134" y="103" type="line"/>
      <point x="134" y="358" type="line"/>
      <point x="238" y="376" type="line"/>
      <point x="238" y="426" type="line"/>
      <point x="129" y="426" type="line"/>
      <point x="129" y="632" type="line"/>
      <point x="272" y="632" type="line"/>
      <point x="272" y="710" type="line"/>
      <point x="69" y="710" type="line"/>
      <point x="46" y="20" type="line"/>
      <point x="281" y="20" type="line"/>
    </contour>
    <contour>
      <point x="117" y="-154" type="line"/>
      <point x="206" y="-151" type="line"/>
      <point x="206" y="-56" type="line"/>
      <point x="113" y="-56" type="line"/>
    </contour>
  </outline>
</glyph>
<glyph name="uni1EBD" format="1">
  <advance width="330"/>
  <unicode hex="1EBD"/>
  <outline>
    <contour>
      <point x="269" y="83" type="line"/>
      <point x="127" y="75" type="line"/>
      <point x="127" y="362" type="line"/>
      <point x="269" y="356" type="line"/>
      <point x="269" y="404" type="line"/>
      <point x="144" y="427" type="line"/>
      <point x="144" y="654" type="line"/>
      <point x="269" y="648" type="line"/>
      <point x="269" y="710" type="line"/>
      <point x="55" y="710" type="line"/>
      <point x="55" y="0" type="line"/>
      <point x="269" y="0" type="line"/>
    </contour>
    <contour>
      <point x="107" y="897"/>
      <point x="95" y="892"/>
      <point x="84" y="883" type="curve" smooth="yes"/>
      <point x="58" y="860" type="line"/>
      <point x="61" y="791" type="line"/>
      <point x="129" y="844" type="line"/>
      <point x="173" y="813" type="line" smooth="yes"/>
      <point x="190" y="801"/>
      <point x="203" y="794"/>
      <point x="218" y="794" type="curve" smooth="yes"/>
      <point x="230" y="794"/>
      <point x="249" y="805"/>
      <point x="262" y="817" type="curve" smooth="yes"/>
      <point x="286" y="840" type="line"/>
      <point x="286" y="900" type="line"/>
      <point x="214" y="852" type="line"/>
      <point x="176" y="877" type="line" smooth="yes"/>
      <point x="160" y="888"/>
      <point x="141" y="897"/>
      <point x="122" y="897" type="curve" smooth="yes"/>
    </contour>
  </outline>
</glyph>
<glyph name="uni1ECB" format="1">
  <advance width="175"/>
  <unicode hex="1ECB"/>
  <outline>
    <contour>
      <point x="113" y="710" type="line"/>
      <point x="50" y="710" type="line"/>
      <point x="50" y="20" type="line"/>
      <point x="134" y="20" type="line"/>
    </contour>
    <contour>
      <point x="48" y="-154" type="line"/>
      <point x="137" y="-151" type="line"/>
      <point x="137" y="-56" type="line"/>
      <point x="44" y="-56" type="line"/>
    </contour>
  </outline>
</glyph>
<glyph name="uni1EE4" format="1">
  <advance width="310"/>
  <unicode hex="1EE4"/>
  <outline>
    <contour>
      <point x="261" y="710" type="line"/>
      <point x="176" y="710" type="line"/>
      <point x="197" y="63" type="line"/>
      <point x="110" y="69" type="line"/>
      <point x="110" y="687" type="line"/>
      <point x="50" y="687" type="line"/>
      <point x="50" y="0" type="line"/>
      <point x="217" y="0" type="line" smooth="yes"/>
      <point x="236" y="0"/>
      <point x="260" y="21"/>
      <point x="260" y="40" type="curve" smooth="yes"/>
    </contour>
    <contour>
      <point x="106" y="-154" type="line"/>
      <point x="195" y="-151" type="line"/>
      <point x="195" y="-56" type="line"/>
      <point x="102" y="-56" type="line"/>
    </contour>
  </outline>
</glyph>
<glyph name="Ygrave" format="1">
  <advance width="247"/>
  <unicode hex="1EF2"/>
  <outline>
    <contour>
      <point x="164" y="389" type="line"/>
      <point x="217" y="451" type="line"/>
      <point x="217" y="710" type="line"/>
      <point x="161" y="710" type="line"/>
      <point x="143" y="428" type="line"/>
      <point x="107" y="431" type="line"/>
      <point x="94" y="710" type="line"/>
      <point x="30" y="710" type="line"/>
      <point x="30" y="472" type="line"/>
      <point x="97" y="353" type="line"/>
      <point x="97" y="-20" type="line"/>
      <point x="164" y="-20" type="line"/>
    </contour>
    <contour>
      <point x="106" y="900" type="line"/>
      <point x="60" y="852" type="line"/>
      <point x="156" y="768" type="line"/>
      <point x="190" y="792" type="line"/>
    </contour>
  </outline>
</glyph>
<glyph name="uni1EF9" format="1">
  <advance width="263"/>
  <unicode hex="1EF9"/>
  <outline>
    <contour>
      <point x="185" y="0" type="line"/>
      <point x="108" y="0" type="line"/>
      <point x="108" y="374" type="line"/>
      <point x="15" y="700" type="line"/>
      <point x="106" y="700" type="line"/>
      <point x="140" y="413" type="line"/>
      <point x="148" y="415" type="line"/>
      <point x="178" y="710" type="line"/>
      <point x="248" y="710" type="line"/>
      <point x="204" y="431" type="line"/>
      <point x="168" y="369" type="line"/>
    </contour>
    <contour>
      <point x="69" y="897"/>
      <point x="57" y="892"/>
      <point x="46" y="883" type="curve" smooth="yes"/>
      <point x="20" y="860" type="line"/>
      <point x="23" y="791" type="line"/>
      <point x="91" y="844" type="line"/>
      <point x="135" y="813" type="line" smooth="yes"/>
      <point x="152" y="801"/>
      <point x="165" y="794"/>
      <point x="180" y="794" type="curve" smooth="yes"/>
      <point x="192" y="794"/>
      <point x="211" y="805"/>
      <point x="224" y="817" type="curve" smooth="yes"/>
      <point x="248" y="840" type="line"/>
      <point x="248" y="900" type="line"/>
      <point x="176" y="852" type="line"/>
      <point x="138" y="877" type="line" smooth="yes"/>
      <point x="122" y="888"/>
      <point x="103" y="897"/>
      <point x="84" y="897" type="curve" smooth="yes"/>
    </contour>
  </outline>
</glyph>
<glyph name="endash" format="1">
  <advance width="338"/>
  <unicode hex="2013"/>
  <outline>
    <contour>
      <point x="47" y="381" type="line"/>
      <point x="47" y="308" type="line"/>
      <point x="288" y="319" type="line"/>
      <point x="291" y="376" type="line"/>
    </contour>
  </outline>
</glyph>
<glyph name="emdash" format="1">
  <advance width="411"/>
  <unicode hex="2014"/>
  <outline>
    <contour>
      <point x="49" y="381" type="line"/>
      <point x="49" y="308" type="line"/>
      <point x="360" y="319" type="line"/>
      <point x="363" y="376" type="line"/>
    </contour>
  </outline>
</glyph>
<glyph name="quoteleft" format="1">
  <advance width="198"/>
  <unicode hex="2018"/>
  <outline>
    <contour>
      <point x="105" y="597" type="line"/>
      <point x="152" y="706" type="line"/>
      <point x="103" y="723" type="line"/>
      <point x="48" y="597" type="line"/>
      <point x="43" y="487" type="line"/>
      <point x="142" y="492" type="line"/>
    </contour>
  </outline>
</glyph>
<glyph name="quotedblbase" format="1">
  <advance width="348"/>
  <unicode hex="201E"/>
  <outline>
    <contour>
      <point x="90" y="-18" type="line"/>
      <point x="43" y="-127" type="line"/>
      <point x="92" y="-144" type="line"/>
      <point x="147" y="-18" type="line"/>
      <point x="152" y="92" type="line"/>
      <point x="53" y="87" type="line"/>
    </contour>
    <contour>
      <point x="237" y="-18" type="line"/>
      <point x="190" y="-127" type="line"/>
      <point x="239" y="-144" type="line"/>
      <point x="294" y="-18" type="line"/>
      <point x="299" y="92" type="line"/>
      <point x="200" y="87" type="line"/>
    </contour>
  </outline>
</glyph>
<glyph name="guilsinglleft" format="1">
  <advance width="287"/>
  <unicode hex="2039"/>
  <outline>
    <contour>
      <point x="188" y="96" type="line"/>
      <point x="250" y="151" type="line"/>
      <point x="109" y="344" type="line"/>
      <point x="109" y="348" type="line"/>
      <point x="252" y="518" type="line"/>
      <point x="195" y="573" type="line"/>
      <point x="33" y="344" type="line"/>
      <point x="31" y="318" type="line"/>
    </contour>
  </outline>
</glyph>
<glyph name="uni2113" format="1">
  <advance width="287"/>
  <unicode hex="2113"/>
  <outline>
    <contour>
      <point x="130" y="710" type="line"/>
      <point x="55" y="616" type="line"/>
      <point x="55" y="253" type="line"/>
      <point x="48" y="253" type="line"/>
      <point x="-1" y="266" type="line"/>
      <point x="-1" y="196" type="line"/>
      <point x="55" y="196" type="line"/>
      <point x="55" y="74" type="line" smooth="yes"/>
      <point x="55" y="33"/>
      <point x="85" y="0"/>
      <point x="124" y="0" type="curve" smooth="yes"/>
      <point x="239" y="0" type="line"/>
      <point x="239" y="147" type="line"/>
      <point x="187" y="140" type="line"/>
      <point x="187" y="55" type="line"/>
      <point x="115" y="50" type="line"/>
      <point x="118" y="197" type="line"/>
      <point x="240" y="381" type="line"/>
      <point x="240" y="710" type="line"/>
    </contour>
    <contour>
      <point x="120" y="281" type="line"/>
      <point x="126" y="610" type="line"/>
      <point x="178" y="655" type="line"/>
      <point x="181" y="640" type="line"/>
      <point x="191" y="578" type="line"/>
      <point x="191" y="409" type="line"/>
    </contour>
  </outline>
</glyph>
<glyph name="trademark" format="1">
  <advance width="387"/>
  <unicode hex="2122"/>
  <outline>
    <contour>
      <point x="150" y="710" type="line"/>
      <point x="34" y="710" type="line"/>
      <point x="30" y="692" type="line"/>
      <point x="64" y="686" type="line"/>
      <point x="64" y="375" type="line"/>
      <point x="114" y="375" type="line"/>
      <point x="114" y="683" type="line"/>
      <point x="150" y="683" type="line"/>
    </contour>
    <contour>
      <point x="211" y="356" type="line"/>
      <point x="211" y="662" type="line"/>
      <point x="215" y="662" type="line"/>
      <point x="247" y="453" type="line"/>
      <point x="282" y="453" type="line"/>
      <point x="322" y="686" type="line"/>
      <point x="326" y="686" type="line"/>
      <point x="315" y="365" type="line"/>
      <point x="358" y="365" type="line"/>
      <point x="358" y="720" type="line"/>
      <point x="291" y="720" type="line"/>
      <point x="269" y="526" type="line"/>
      <point x="265" y="526" type="line"/>
      <point x="239" y="710" type="line"/>
      <point x="176" y="710" type="line"/>
      <point x="176" y="356" type="line"/>
    </contour>
  </outline>
</glyph>
<glyph name="uni2154" format="1">
  <advance width="449"/>
  <unicode hex="2154"/>
  <outline>
    <contour>
      <point x="429" y="679" type="line"/>
      <point x="395" y="707" type="line"/>
      <point x="34" y="33" type="line"/>
      <point x="73" y="-2" type="line"/>
    </contour>
    <contour>
      <point x="425" y="220" type="line"/>
      <point x="425" y="315" type="line"/>
      <point x="309" y="315" type="line"/>
      <point x="281" y="289" type="line"/>
      <point x="281" y="262" type="line"/>
      <point x="380" y="266" type="line"/>
      <point x="378" y="229" type="line"/>
      <point x="293" y="183" type="line"/>
      <point x="313" y="158" type="line"/>
      <point x="371" y="161" type="line"/>
      <point x="379" y="50" type="line"/>
      <point x="331" y="55" type="line"/>
      <point x="326" y="116" type="line"/>
      <point x="286" y="116" type="line"/>
      <point x="286" y="0" type="line"/>
      <point x="396" y="0" type="line"/>
      <point x="423" y="30" type="line"/>
      <point x="423" y="170" type="line"/>
      <point x="419" y="175"/>
      <point x="413" y="186"/>
      <point x="408" y="193" type="curve"/>
      <point x="421" y="206" type="line"/>
    </contour>
    <contour>
      <point x="82" y="449" type="line"/>
      <point x="161" y="545" type="line"/>
      <point x="168" y="709" type="line"/>
      <point x="68" y="709" type="line"/>
      <point x="31" y="661" type="line"/>
      <point x="31" y="578" type="line"/>
      <point x="65" y="580" type="line"/>
      <point x="75" y="658" type="line"/>
      <point x="117" y="658" type="line"/>
      <point x="112" y="566" type="line"/>
      <point x="22" y="445" type="line"/>
      <point x="14" y="391" type="line"/>
      <point x="172" y="391" type="line"/>
      <point x="172" y="438" type="line"/>
    </contour>
  </outline>
</glyph>
<glyph name="product" format="1">
  <advance width="298"/>
  <unicode hex="220F"/>
  <outline>
    <contour>
      <point x="42" y="0" type="line"/>
      <point x="106" y="0" type="line"/>
      <point x="106" y="647" type="line"/>
      <point x="183" y="641" type="line"/>
      <point x="203" y="23" type="line"/>
      <point x="253" y="23" type="line"/>
      <point x="253" y="710" type="line"/>
      <point x="49" y="702" type="line"/>
    </contour>
  </outline>
</glyph>
<glyph name="uni2215" format="1">
  <advance width="395"/>
  <unicode hex="2215"/>
  <outline>
    <contour>
      <point x="395" y="679" type="line"/>
      <point x="361" y="707" type="line"/>
      <point x="0" y="33" type="line"/>
      <point x="39" y="-2" type="line"/>
    </contour>
  </outline>
</glyph>
<glyph name="radical" format="1">
  <advance width="391"/>
  <unicode hex="221A"/>
  <outline>
    <contour>
      <point x="199" y="0" type="line"/>
      <point x="294" y="647" type="line"/>
      <point x="381" y="656" type="line"/>
      <point x="377" y="710" type="line"/>
      <point x="239" y="710" type="line"/>
      <point x="171" y="78" type="line"/>
      <point x="167" y="78" type="line"/>
      <point x="129" y="325" type="line"/>
      <point x="10" y="325" type="line"/>
      <point x="14" y="288" type="line"/>
      <point x="85" y="269" type="line"/>
      <point x="133" y="-10" type="line"/>
    </contour>
  </outline>
</glyph>
<glyph name="uniFB01" format="1">
  <advance width="426"/>
  <unicode hex="FB01"/>
  <outline>
    <contour>
      <point x="137" y="-20" type="line"/>
      <point x="117" y="372" type="line"/>
      <point x="306" y="387" type="line"/>
      <point x="306" y="20" type="line"/>
      <point x="390" y="20" type="line"/>
      <point x="369" y="447" type="line"/>
      <point x="134" y="447" type="line"/>
      <point x="134" y="616" type="line"/>
      <point x="353" y="628" type="line"/>
      <point x="353" y="690" type="line"/>
      <point x="55" y="710" type="line"/>
      <point x="55" y="-20" type="line"/>
    </contour>
  </outline>
</glyph>
<glyph name="uniFB02" format="1">
  <advance width="548"/>
  <unicode hex="FB02"/>
  <outline>
    <contour>
      <point x="518" y="69" type="line"/>
      <point x="405" y="82" type="line"/>
      <point x="390" y="105" type="line"/>
      <point x="390" y="690" type="line"/>
      <point x="55" y="710" type="line"/>
      <point x="55" y="-20" type="line"/>
      <point x="137" y="-20" type="line"/>
      <point x="117" y="372" type="line"/>
      <point x="259" y="389" type="line"/>
      <point x="259" y="447" type="line"/>
      <point x="134" y="447" type="line"/>
      <point x="134" y="616" type="line"/>
      <point x="321" y="625" type="line"/>
      <point x="321" y="0" type="line"/>
      <point x="518" y="0" type="line"/>
    </contour>
  </outline>
</glyph>
<glyph name="Nacute.loclPLK" format="1">
  <advance width="344"/>
  <outline>
    <contour>
      <point x="310" y="0" type="line"/>
      <point x="195" y="0" type="line"/>
      <point x="93" y="651" type="line"/>
      <point x="89" y="651" type="line"/>
      <point x="89" y="0" type="line"/>
      <point x="30" y="0" type="line"/>
      <point x="30" y="710" type="line"/>
      <point x="146" y="710" type="line"/>
      <point x="236" y="58" type="line"/>
      <point x="240" y="58" type="line"/>
      <point x="262" y="710" type="line"/>
      <point x="320" y="710" type="line"/>
    </contour>
    <contour>
      <point x="163" y="769" type="line"/>
      <point x="204" y="761" type="line"/>
      <point x="257" y="877" type="line"/>
      <point x="194" y="897" type="line"/>
    </contour>
  </outline>
</glyph>
<glyph name="Yacute.loclGUA" format="1">
  <advance width="247"/>
  <outline>
    <contour>
      <point x="217" y="0" type="line"/>
      <point x="37" y="0" type="line"/>
      <point x="47" y="72" type="line"/>
      <point x="159" y="57" type="line"/>
      <point x="144" y="323" type="line"/>
      <point x="30" y="338" type="line"/>
      <point x="30" y="690" type="line"/>
      <point x="89" y="690" type="line"/>
      <point x="102" y="391" type="line"/>
      <point x="151" y="388" type="line"/>
      <point x="151" y="710" type="line"/>
      <point x="217" y="710" type="line"/>
    </contour>
    <contour>
      <point x="68" y="792" type="line"/>
      <point x="102" y="768" type="line"/>
      <point x="198" y="852" type="line"/>
      <point x="152" y="900" type="line"/>
    </contour>
  </outline>
</glyph>
<glyph name="Ycircumflex.loclGUA" format="1">
  <advance width="247"/>
  <outline>
    <contour>
      <point x="217" y="710" type="line"/>
      <point x="151" y="710" type="line"/>
      <point x="151" y="388" type="line"/>
      <point x="102" y="391" type="line"/>
      <point x="89" y="690" type="line"/>
      <point x="30" y="690" type="line"/>
      <point x="30" y="338" type="line"/>
      <point x="144" y="323" type="line"/>
      <point x="159" y="57" type="line"/>
      <point x="47" y="72" type="line"/>
      <point x="37" y="0" type="line"/>
      <point x="217" y="0" type="line"/>
    </contour>
    <contour>
      <point x="33" y="787" type="line"/>
      <point x="62" y="768" type="line"/>
      <point x="127" y="830" type="line"/>
      <point x="192" y="768" type="line"/>
      <point x="221" y="787" type="line"/>
      <point x="147" y="897" type="line"/>
      <point x="107" y="900" type="line"/>
    </contour>
  </outline>
</glyph>
<glyph name="Ydieresis.loclGUA" format="1">
  <advance width="247"/>
  <outline>
    <contour>
      <point x="217" y="0" type="line"/>
      <point x="37" y="0" type="line"/>
      <point x="47" y="72" type="line"/>
      <point x="159" y="57" type="line"/>
      <point x="144" y="323" type="line"/>
      <point x="30" y="338" type="line"/>
      <point x="30" y="690" type="line"/>
      <point x="89" y="690" type="line"/>
      <point x="102" y="391" type="line"/>
      <point x="151" y="388" type="line"/>
      <point x="151" y="710" type="line"/>
      <point x="217" y="710" type="line"/>
    </contour>
    <contour>
      <point x="10" y="815" type="line"/>
      <point x="89" y="815" type="line"/>
      <point x="93" y="898" type="line"/>
      <point x="10" y="895" type="line"/>
    </contour>
    <contour>
      <point x="163" y="815" type="line"/>
      <point x="239" y="818" type="line"/>
      <point x="239" y="898" type="line"/>
      <point x="160" y="898" type="line"/>
    </contour>
  </outline>
</glyph>
<glyph name="Ygrave.loclGUA" format="1">
  <advance width="247"/>
  <outline>
    <contour>
      <point x="217" y="710" type="line"/>
      <point x="151" y="710" type="line"/>
      <point x="151" y="388" type="line"/>
      <point x="102" y="391" type="line"/>
      <point x="89" y="690" type="line"/>
      <point x="30" y="690" type="line"/>
      <point x="30" y="338" type="line"/>
      <point x="144" y="323" type="line"/>
      <point x="159" y="57" type="line"/>
      <point x="47" y="72" type="line"/>
      <point x="37" y="0" type="line"/>
      <point x="217" y="0" type="line"/>
    </contour>
    <contour>
      <point x="90" y="900" type="line"/>
      <point x="44" y="852" type="line"/>
      <point x="140" y="768" type="line"/>
      <point x="174" y="792" type="line"/>
    </contour>
  </outline>
</glyph>
<glyph name=".notdef" format="1">
  <advance width="339"/>
  <outline>
    <contour>
      <point x="50" y="701" type="line"/>
      <point x="50" y="0" type="line"/>
      <point x="239" y="0" type="line"/>
      <point x="290" y="11" type="line"/>
      <point x="267" y="710" type="line"/>
    </contour>
    <contour>
      <point x="101" y="39" type="line" smooth="yes"/>
      <point x="98" y="39"/>
      <point x="95" y="40"/>
      <point x="93" y="41" type="curve"/>
      <point x="163" y="321" type="line"/>
      <point x="226" y="39" type="line"/>
      <point x="222" y="39" type="line"/>
    </contour>
    <contour>
      <point x="104" y="676" type="line"/>
      <point x="225" y="676" type="line"/>
      <point x="233" y="672" type="line"/>
      <point x="164" y="411" type="line"/>
      <point x="101" y="676" type="line"/>
    </contour>
    <contour>
      <point x="152" y="368" type="line"/>
      <point x="88" y="124" type="line"/>
      <point x="88" y="657" type="line"/>
    </contour>
    <contour>
      <point x="174" y="367" type="line"/>
      <point x="237" y="618" type="line"/>
      <point x="237" y="106" type="line"/>
    </contour>
  </outline>
</glyph>
<glyph name="baraccent" format="1">
  <advance width="253"/>
  <outline>
    <contour>
      <point x="12" y="396" type="line"/>
      <point x="15" y="338" type="line"/>
      <point x="241" y="338" type="line"/>
      <point x="241" y="387" type="line"/>
    </contour>
  </outline>
</glyph>
<glyph name="caron.alt" format="1">
  <advance width="171"/>
  <outline>
    <contour>
      <point x="81" y="803" type="line"/>
      <point x="30" y="728" type="line"/>
      <point x="73" y="713" type="line"/>
      <point x="141" y="803" type="line"/>
      <point x="135" y="899" type="line"/>
      <point x="49" y="895" type="line"/>
    </contour>
    <contour>
      <point x="86" y="492" type="move" name="_top"/>
    </contour>
  </outline>
</glyph>
<glyph name="commaaccentinvert" format="1">
  <advance width="148"/>
  <outline>
    <contour>
      <point x="114" y="810" type="line"/>
      <point x="72" y="810" type="line"/>
      <point x="118" y="884" type="line"/>
      <point x="63" y="900" type="line"/>
      <point x="30" y="810" type="line"/>
      <point x="33" y="728" type="line"/>
      <point x="114" y="728" type="line"/>
    </contour>
  </outline>
</glyph>
<glyph name="iacute_j.loclNLD" format="1">
  <advance width="460"/>
  <outline>
    <contour>
      <point x="113" y="710" type="line"/>
      <point x="50" y="710" type="line"/>
      <point x="50" y="20" type="line"/>
      <point x="134" y="20" type="line"/>
    </contour>
    <contour>
      <point x="397" y="0" type="line"/>
      <point x="261" y="0" type="line" smooth="yes"/>
      <point x="242" y="0"/>
      <point x="219" y="19"/>
      <point x="218" y="38" type="curve" smooth="yes"/>
      <point x="210" y="172" type="line"/>
      <point x="259" y="172" type="line"/>
      <point x="264" y="94" type="line"/>
      <point x="339" y="89" type="line"/>
      <point x="339" y="696" type="line"/>
      <point x="379" y="710" type="line"/>
      <point x="416" y="710" type="line"/>
    </contour>
    <contour>
      <point x="20" y="792" type="line"/>
      <point x="54" y="768" type="line"/>
      <point x="150" y="852" type="line"/>
      <point x="104" y="900" type="line"/>
    </contour>
    <contour>
      <point x="314" y="792" type="line"/>
      <point x="348" y="768" type="line"/>
      <point x="444" y="852" type="line"/>
      <point x="398" y="900" type="line"/>
    </contour>
  </outline>
</glyph>
<glyph name="quotesingle.loclGUA" format="1">
  <advance width="143"/>
  <outline>
    <contour>
      <point x="50" y="595" type="line"/>
      <point x="37" y="462" type="line"/>
      <point x="89" y="463" type="line"/>
      <point x="113" y="723" type="line"/>
      <point x="30" y="710" type="line"/>
    </contour>
  </outline>
</glyph>
<glyph name="six.ss01" format="1">
  <advance width="339"/>
  <outline>
    <contour>
      <point x="235" y="560" type="line"/>
      <point x="292" y="560" type="line"/>
      <point x="307" y="690" type="line"/>
      <point x="235" y="710" type="line"/>
      <point x="64" y="710" type="line"/>
      <point x="43" y="48" type="line"/>
      <point x="78" y="0" type="line"/>
      <point x="246" y="0" type="line"/>
      <point x="285" y="28" type="line"/>
      <point x="301" y="348" type="line"/>
      <point x="217" y="385" type="line"/>
      <point x="126" y="385" type="line"/>
      <point x="126" y="620" type="line"/>
      <point x="150" y="643" type="line"/>
      <point x="235" y="632" type="line"/>
    </contour>
    <contour>
      <point x="217" y="80" type="line"/>
      <point x="151" y="60" type="line"/>
      <point x="126" y="90" type="line"/>
      <point x="126" y="317" type="line"/>
      <point x="217" y="313" type="line"/>
    </contour>
  </outline>
</glyph>
<glyph name="three.ss01" format="1">
  <advance width="339"/>
  <outline>
    <contour>
      <point x="288" y="343" type="line"/>
      <point x="255" y="379" type="line"/>
      <point x="291" y="416" type="line"/>
      <point x="291" y="658" type="line"/>
      <point x="244" y="710" type="line"/>
      <point x="87" y="710" type="line"/>
      <point x="48" y="688" type="line"/>
      <point x="69" y="562" type="line"/>
      <point x="121" y="574" type="line"/>
      <point x="112" y="632" type="line"/>
      <point x="112" y="636"/>
      <point x="117" y="638"/>
      <point x="128" y="638" type="curve" smooth="yes"/>
      <point x="206" y="639" type="line"/>
      <point x="207" y="640"/>
      <point x="208" y="640"/>
      <point x="211" y="640" type="curve" smooth="yes"/>
      <point x="218" y="640"/>
      <point x="221" y="637"/>
      <point x="221" y="630" type="curve" smooth="yes"/>
      <point x="210" y="418" type="line"/>
      <point x="99" y="395" type="line"/>
      <point x="99" y="340" type="line"/>
      <point x="224" y="330" type="line"/>
      <point x="224" y="66" type="line"/>
      <point x="120" y="66" type="line"/>
      <point x="118" y="157" type="line"/>
      <point x="47" y="142" type="line"/>
      <point x="47" y="29" type="line"/>
      <point x="93" y="0" type="line"/>
      <point x="260" y="0" type="line"/>
      <point x="294" y="38" type="line"/>
      <point x="294" y="319" type="line"/>
    </contour>
  </outline>
</glyph>
<glyph name="two.ss01" format="1">
  <advance width="339"/>
  <outline>
    <contour>
      <point x="118" y="90" type="line"/>
      <point x="300" y="458" type="line"/>
      <point x="300" y="694" type="line"/>
      <point x="272" y="730" type="line"/>
      <point x="94" y="730" type="line"/>
      <point x="34" y="700" type="line"/>
      <point x="68" y="550" type="line"/>
      <point x="134" y="570" type="line"/>
      <point x="113" y="658" type="line"/>
      <point x="131" y="666" type="line"/>
      <point x="222" y="666" type="line"/>
      <point x="222" y="486" type="line"/>
      <point x="37" y="105" type="line"/>
      <point x="52" y="20" type="line"/>
      <point x="301" y="-1" type="line"/>
      <point x="312" y="90" type="line"/>
    </contour>
  </outline>
</glyph>
<glyph name="uni1EF8.loclGUA" format="1">
  <advance width="247"/>
  <outline>
    <contour>
      <point x="217" y="0" type="line"/>
      <point x="37" y="0" type="line"/>
      <point x="47" y="72" type="line"/>
      <point x="159" y="57" type="line"/>
      <point x="144" y="323" type="line"/>
      <point x="30" y="338" type="line"/>
      <point x="30" y="690" type="line"/>
      <point x="89" y="690" type="line"/>
      <point x="102" y="391" type="line"/>
      <point x="151" y="388" type="line"/>
      <point x="151" y="710" type="line"/>
      <point x="217" y="710" type="line"/>
    </contour>
    <contour>
      <point x="58" y="897"/>
      <point x="46" y="892"/>
      <point x="35" y="883" type="curve" smooth="yes"/>
      <point x="9" y="860" type="line"/>
      <point x="12" y="791" type="line"/>
      <point x="80" y="844" type="line"/>
      <point x="124" y="813" type="line" smooth="yes"/>
      <point x="141" y="801"/>
      <point x="154" y="794"/>
      <point x="169" y="794" type="curve" smooth="yes"/>
      <point x="181" y="794"/>
      <point x="200" y="805"/>
      <point x="213" y="817" type="curve" smooth="yes"/>
      <point x="237" y="840" type="line"/>
      <point x="237" y="900" type="line"/>
      <point x="165" y="852" type="line"/>
      <point x="127" y="877" type="line" smooth="yes"/>
      <point x="111" y="888"/>
      <point x="92" y="897"/>
      <point x="73" y="897" type="curve" smooth="yes"/>
    </contour>
  </outline>
</glyph>
<glyph name="zacute.loclPLK" format="1">
  <advance width="292"/>
  <outline>
    <contour>
      <point x="43" y="0" type="line"/>
      <point x="25" y="33" type="line"/>
      <point x="169" y="662" type="line"/>
      <point x="41" y="646" type="line"/>
      <point x="41" y="710" type="line"/>
      <point x="247" y="710" type="line"/>
      <point x="133" y="56" type="line"/>
      <point x="267" y="47" type="line"/>
      <point x="267" y="0" type="line"/>
    </contour>
    <contour>
      <point x="117" y="769" type="line"/>
      <point x="158" y="761" type="line"/>
      <point x="211" y="877" type="line"/>
      <point x="148" y="897" type="line"/>
    </contour>
  </outline>
</glyph>
